<?xml version="1.0" encoding="UTF-8"?>
<svg id="_圖層_1" xmlns="http://www.w3.org/2000/svg" version="1.1" viewBox="0 0 800 800">
  <!-- Generator: Adobe Illustrator 30.5.1, SVG Export Plug-In . SVG Version: 2.1.4 Build 3)  -->
  <g>
    <g>
      <path d="M119.88,590.12l-.16-10.84-11.1-17.65c-.08-.11-.12-.3-.12-.37,0-.23.15-.38.45-.38l5.08-.07c.3,0,.53.22.68.48l7.68,12.99,7.3-13.21c.15-.27.37-.49.67-.5l5.08-.07c.3,0,.45.14.46.37,0,.11-.03.27-.11.38l-10.59,17.92.16,10.88c0,.34-.18.53-.52.53l-4.44.06c-.34,0-.53-.18-.53-.52h0Z" style="fill: #231815;"/>
      <path d="M169.15,562.11c-.03-1.73,1.28-2.96,3.05-2.98,1.77-.03,3.1,1.16,3.13,2.89.03,1.77-1.27,2.95-3.04,2.98-1.77.03-3.11-1.12-3.13-2.89h-.01ZM170.22,568.8l4.22-.06c.34,0,.53.18.54.52l.29,20.06c0,.34-.18.53-.52.53l-4.22.06c-.34,0-.53-.18-.53-.52l-.29-20.06c0-.34.18-.53.52-.54h0Z" style="fill: #231815;"/>
      <path d="M210.29,586.52c-.03-1.88,1.38-3.22,3.27-3.25s3.33,1.27,3.36,3.15-1.38,3.26-3.26,3.29-3.33-1.31-3.36-3.19h-.01Z" style="fill: #231815;"/>
      <path d="M257.84,576.84l.16,11.29c0,.34-.18.53-.52.54l-4.44.06c-.34,0-.53-.18-.53-.52l-.42-28.87c0-.34.18-.53.52-.53l18.22-.26c.34,0,.53.18.53.52l.06,4.14c0,.34-.18.53-.52.54l-13.25.19.11,7.72,11.41-.16c.34,0,.53.18.54.52l.06,4.14c0,.34-.18.53-.52.54l-11.41.17v-.03Z" style="fill: #231815;"/>
      <path d="M303.45,577.46c-.09-6.51,3.68-11.04,9.71-11.13,2.94-.04,5.4,1.16,6.94,3.21l.12-2.34c.03-.38.22-.57.56-.57l3.8-.06c.34,0,.56.18.57.52l.29,20.06c0,.34-.22.53-.56.53l-3.8.06c-.34,0-.53-.14-.57-.52l-.18-2.37c-1.48,2.09-3.9,3.37-6.84,3.41-6.02.08-9.93-4.34-10.02-10.82l-.02.02ZM314.72,583.44c3.39-.05,5.68-2.6,5.63-6.22-.05-3.65-2.42-6.14-5.81-6.09-3.39.05-5.69,2.6-5.63,6.25.05,3.62,2.42,6.1,5.81,6.05h0Z" style="fill: #231815;"/>
      <path d="M361.05,586.65l-.29-20.06c0-.34.18-.53.52-.54l3.84-.06c.3,0,.57.14.57.52l.15,2.41c1.51-2.28,4.13-3.41,6.84-3.45,4.9-.07,7.76,2.82,7.83,7.68l.19,13.21c0,.34-.22.53-.52.54l-4.25.06c-.34,0-.53-.18-.53-.52l-.16-11.07c-.05-3.5-1.36-5.1-4.1-5.06-2.6.04-5.01,1.99-4.96,6.02l.15,10.24c0,.34-.18.53-.52.53l-4.22.06c-.34,0-.53-.18-.53-.52h0Z" style="fill: #231815;"/>
      <path d="M415.55,589.64c-.04-.11-.08-.19-.08-.26,0-.19.15-.34.37-.42l3.41-1.29c.07-.04.15-.08.23-.08.19,0,.34.15.46.33,1.04,1.75,2.71,2.86,5.54,2.82,3.28-.05,6.08-1.48,6.02-5.21l-.03-1.92c-1.52,1.9-3.87,3.03-6.66,3.07-6.02.08-9.92-4.34-10.02-10.82-.09-6.51,3.68-11.04,9.7-11.13,2.94-.04,5.4,1.16,6.94,3.21l.11-2.37c.03-.38.22-.53.56-.54l3.8-.06c.34,0,.57.18.57.52l.28,19.42c.1,6.7-4.41,10.53-11.03,10.62-4.52.06-8.46-1.91-10.17-5.91v.02ZM426.06,581.84c3.39-.05,5.68-2.6,5.63-6.22-.05-3.65-2.42-6.14-5.81-6.09s-5.69,2.6-5.63,6.25c.05,3.62,2.42,6.1,5.81,6.05h0Z" style="fill: #231815;"/>
      <path d="M471.75,582.77c-.03-1.88,1.38-3.22,3.27-3.25s3.33,1.27,3.36,3.15-1.38,3.26-3.26,3.29-3.33-1.31-3.36-3.19h0Z" style="fill: #231815;"/>
      <path d="M511.91,577.67s-.04-.11-.04-.23c0-.23.11-.38.37-.42l4.43-1.12c.23,0,.38.11.46.37,1.13,2.66,2.84,3.84,5.89,3.79,2.9-.04,4.84-1.01,4.81-3.27-.03-2.22-1.89-3.33-4.96-4.37l-2.65-.9c-4.84-1.59-7.74-4.29-7.81-8.62-.07-4.89,4.21-8.46,9.93-8.54,5.01-.07,8.77,2.17,10.34,7.16.04.04.04.11.04.23,0,.19-.11.34-.37.42l-4.31,1.16s-.11,0-.19.04-.15.04-.19.04c-.19,0-.34-.11-.45-.37-1.05-2.43-2.53-3.35-4.79-3.32-2.67.04-4.31,1.19-4.29,2.96.03,1.84,1.59,3.06,5.11,4.18l2.12.68c5.45,1.69,8.11,4.25,8.19,9.18.07,4.97-4.2,8.61-10.45,8.7-5.61.08-9.49-2.54-11.18-7.75h0Z" style="fill: #231815;"/>
      <path d="M568.98,576.02l-.12-8.2-3.12.05c-.34,0-.53-.22-.54-.52l-.05-3.69c0-.34.18-.53.52-.54l3.12-.05-.08-5.68c0-.3.18-.53.52-.53l4.22-.06c.3,0,.53.22.54.52l.08,5.68,5-.07c.34,0,.53.18.53.52l.05,3.69c0,.3-.18.53-.52.54l-5,.07.12,8.54c.03,2.3.76,3.42,2.42,3.39.68-.01,1.16-.32,1.56-1.04.14-.3.41-.42.71-.28l3.22,1.38c.19.07.3.26.31.45,0,.11-.07.27-.14.42-1.5,2.81-3.79,3.86-6.19,3.89-4.55.07-7.08-2.76-7.16-8.48Z" style="fill: #231815;"/>
      <path d="M613.68,573.01c-.09-6.51,3.68-11.04,9.7-11.13,2.94-.04,5.4,1.16,6.94,3.21l.12-2.34c.03-.38.22-.57.56-.57l3.8-.05c.34,0,.57.18.57.52l.29,20.06c0,.34-.22.53-.56.54l-3.8.05c-.34,0-.53-.14-.57-.52l-.18-2.37c-1.48,2.09-3.9,3.37-6.84,3.41-6.02.09-9.92-4.34-10.02-10.81h0ZM624.95,578.99c3.39-.05,5.68-2.6,5.63-6.22-.05-3.65-2.42-6.14-5.81-6.09s-5.68,2.6-5.63,6.25c.05,3.62,2.42,6.1,5.81,6.06Z" style="fill: #231815;"/>
      <path d="M674.11,590.96l3.74-9.69-8.74-19.04c-.04-.08-.08-.19-.08-.26,0-.19.18-.34.48-.35l5.04-.07c.3,0,.49.11.61.41l5.34,12.87,4.82-13.02c.11-.31.33-.42.59-.42l4.67-.07c.26,0,.45.14.46.33,0,.08-.03.19-.07.26l-11.4,29.15c-.11.3-.29.42-.6.42l-4.44.06c-.38,0-.53-.22-.42-.6v.02Z" style="fill: #231815;"/>
    </g>
    <g>
      <path d="M119.88,590.12l-.16-10.84-11.1-17.65c-.08-.11-.12-.3-.12-.37,0-.23.15-.38.45-.38l5.08-.07c.3,0,.53.22.68.48l7.68,12.99,7.3-13.21c.15-.27.37-.49.67-.5l5.08-.07c.3,0,.45.14.46.37,0,.11-.03.27-.11.38l-10.59,17.92.16,10.88c0,.34-.18.53-.52.53l-4.44.06c-.34,0-.53-.18-.53-.52h0Z" style="fill: #160604;"/>
      <path d="M169.15,562.11c-.03-1.73,1.28-2.96,3.05-2.98,1.77-.03,3.1,1.16,3.13,2.89.03,1.77-1.27,2.95-3.04,2.98-1.77.03-3.11-1.12-3.13-2.89h-.01ZM170.22,568.8l4.22-.06c.34,0,.53.18.54.52l.29,20.06c0,.34-.18.53-.52.53l-4.22.06c-.34,0-.53-.18-.53-.52l-.29-20.06c0-.34.18-.53.52-.54h0Z" style="fill: #160604;"/>
      <path d="M210.29,586.52c-.03-1.88,1.38-3.22,3.27-3.25s3.33,1.27,3.36,3.15-1.38,3.26-3.26,3.29-3.33-1.31-3.36-3.19h-.01Z" style="fill: #160604;"/>
      <path d="M257.84,576.84l.16,11.29c0,.34-.18.53-.52.54l-4.44.06c-.34,0-.53-.18-.53-.52l-.42-28.87c0-.34.18-.53.52-.53l18.22-.26c.34,0,.53.18.53.52l.06,4.14c0,.34-.18.53-.52.54l-13.25.19.11,7.72,11.41-.16c.34,0,.53.18.54.52l.06,4.14c0,.34-.18.53-.52.54l-11.41.17v-.03Z" style="fill: #160604;"/>
      <path d="M303.45,577.46c-.09-6.51,3.68-11.04,9.71-11.13,2.94-.04,5.4,1.16,6.94,3.21l.12-2.34c.03-.38.22-.57.56-.57l3.8-.06c.34,0,.56.18.57.52l.29,20.06c0,.34-.22.53-.56.53l-3.8.06c-.34,0-.53-.14-.57-.52l-.18-2.37c-1.48,2.09-3.9,3.37-6.84,3.41-6.02.08-9.93-4.34-10.02-10.82l-.02.02ZM314.72,583.44c3.39-.05,5.68-2.6,5.63-6.22-.05-3.65-2.42-6.14-5.81-6.09-3.39.05-5.69,2.6-5.63,6.25.05,3.62,2.42,6.1,5.81,6.05h0Z" style="fill: #160604;"/>
      <path d="M361.05,586.65l-.29-20.06c0-.34.18-.53.52-.54l3.84-.06c.3,0,.57.14.57.52l.15,2.41c1.51-2.28,4.13-3.41,6.84-3.45,4.9-.07,7.76,2.82,7.83,7.68l.19,13.21c0,.34-.22.53-.52.54l-4.25.06c-.34,0-.53-.18-.53-.52l-.16-11.07c-.05-3.5-1.36-5.1-4.1-5.06-2.6.04-5.01,1.99-4.96,6.02l.15,10.24c0,.34-.18.53-.52.53l-4.22.06c-.34,0-.53-.18-.53-.52h0Z" style="fill: #160604;"/>
      <path d="M415.55,589.64c-.04-.11-.08-.19-.08-.26,0-.19.15-.34.37-.42l3.41-1.29c.07-.04.15-.08.23-.08.19,0,.34.15.46.33,1.04,1.75,2.71,2.86,5.54,2.82,3.28-.05,6.08-1.48,6.02-5.21l-.03-1.92c-1.52,1.9-3.87,3.03-6.66,3.07-6.02.08-9.92-4.34-10.02-10.82-.09-6.51,3.68-11.04,9.7-11.13,2.94-.04,5.4,1.16,6.94,3.21l.11-2.37c.03-.38.22-.53.56-.54l3.8-.06c.34,0,.57.18.57.52l.28,19.42c.1,6.7-4.41,10.53-11.03,10.62-4.52.06-8.46-1.91-10.17-5.91v.02ZM426.06,581.84c3.39-.05,5.68-2.6,5.63-6.22-.05-3.65-2.42-6.14-5.81-6.09s-5.69,2.6-5.63,6.25c.05,3.62,2.42,6.1,5.81,6.05h0Z" style="fill: #160604;"/>
      <path d="M471.75,582.77c-.03-1.88,1.38-3.22,3.27-3.25s3.33,1.27,3.36,3.15-1.38,3.26-3.26,3.29-3.33-1.31-3.36-3.19h0Z" style="fill: #160604;"/>
      <path d="M511.91,577.67s-.04-.11-.04-.23c0-.23.11-.38.37-.42l4.43-1.12c.23,0,.38.11.46.37,1.13,2.66,2.84,3.84,5.89,3.79,2.9-.04,4.84-1.01,4.81-3.27-.03-2.22-1.89-3.33-4.96-4.37l-2.65-.9c-4.84-1.59-7.74-4.29-7.81-8.62-.07-4.89,4.21-8.46,9.93-8.54,5.01-.07,8.77,2.17,10.34,7.16.04.04.04.11.04.23,0,.19-.11.34-.37.42l-4.31,1.16s-.11,0-.19.04-.15.04-.19.04c-.19,0-.34-.11-.45-.37-1.05-2.43-2.53-3.35-4.79-3.32-2.67.04-4.31,1.19-4.29,2.96.03,1.84,1.59,3.06,5.11,4.18l2.12.68c5.45,1.69,8.11,4.25,8.19,9.18.07,4.97-4.2,8.61-10.45,8.7-5.61.08-9.49-2.54-11.18-7.75h0Z" style="fill: #160604;"/>
      <path d="M568.98,576.02l-.12-8.2-3.12.05c-.34,0-.53-.22-.54-.52l-.05-3.69c0-.34.18-.53.52-.54l3.12-.05-.08-5.68c0-.3.18-.53.52-.53l4.22-.06c.3,0,.53.22.54.52l.08,5.68,5-.07c.34,0,.53.18.53.52l.05,3.69c0,.3-.18.53-.52.54l-5,.07.12,8.54c.03,2.3.76,3.42,2.42,3.39.68-.01,1.16-.32,1.56-1.04.14-.3.41-.42.71-.28l3.22,1.38c.19.07.3.26.31.45,0,.11-.07.27-.14.42-1.5,2.81-3.79,3.86-6.19,3.89-4.55.07-7.08-2.76-7.16-8.48Z" style="fill: #160604;"/>
      <path d="M613.68,573.01c-.09-6.51,3.68-11.04,9.7-11.13,2.94-.04,5.4,1.16,6.94,3.21l.12-2.34c.03-.38.22-.57.56-.57l3.8-.05c.34,0,.57.18.57.52l.29,20.06c0,.34-.22.53-.56.54l-3.8.05c-.34,0-.53-.14-.57-.52l-.18-2.37c-1.48,2.09-3.9,3.37-6.84,3.41-6.02.09-9.92-4.34-10.02-10.81h0ZM624.95,578.99c3.39-.05,5.68-2.6,5.63-6.22-.05-3.65-2.42-6.14-5.81-6.09s-5.68,2.6-5.63,6.25c.05,3.62,2.42,6.1,5.81,6.06Z" style="fill: #160604;"/>
      <path d="M674.11,590.96l3.74-9.69-8.74-19.04c-.04-.08-.08-.19-.08-.26,0-.19.18-.34.48-.35l5.04-.07c.3,0,.49.11.61.41l5.34,12.87,4.82-13.02c.11-.31.33-.42.59-.42l4.67-.07c.26,0,.45.14.46.33,0,.08-.03.19-.07.26l-11.4,29.15c-.11.3-.29.42-.6.42l-4.44.06c-.38,0-.53-.22-.42-.6v.02Z" style="fill: #160604;"/>
    </g>
  </g>
  <g>
    <g>
      <path d="M388.74,675.9c3.75-.54,9.75-1.33,13.36-2.35-.88,2.71-3.85,5.38-5.46,7.7-1.06.81-3.07,5.17-5.63,9.52-2.77,4.7-18.32,13.46-12.57,15.71,2.2.86,16.64-6.86,19.42-7.93,1.27,3.73-1.39,8.26.23,12.23-1.04,2.49.71,7.22,1.22,7.83,1.4,2.07,2.48.52,3.63,2.18,8.4,3.51,14.2-5.9,18.25-11.96,8.26-13.68,8.44-20.93-6.93-26.82l-1.15-.7c-2.52-2.01.82-3.07,1.25-6.8.83-.44,3.86-2.55,4.87-2.21,3.86-2.88,8.42-5.67,13.47-5.82,5.38-.59,11.17,6.76,15.82,3.93.45-.27,1.04-1.84,1.04-1.84,1.44.28,2.71.26,3.64-.23,3.94-2.06,1.24-6.55.51-7.03-1.79-1.2-1.71-2.09-3.41-2.76-1.67-.14-2.71-1.31-4.36-1.48-1.27-.13-6.74-.99-8.34-.93-4.75.34-9.51-2.16-13.97-3.49-3.02.39-5.87,3.08-7.94,5.01-9.48,1.2-19.66,2.67-29.07,4.43-12,2.44-24.94,3.92-36.86.52-1.44,1.22,2.38,3.11,2.9,3.93,3.61,4.27,9.36,5.55,14.26,7.53,7.24.88,14.54,2.69,21.83,1.82h-.01ZM403.36,694.13c-.38-3.97,3.01-6.54,5.46-9.23,1.03,1.7,3.04,4.13,4.26,5.49-.39,5.22-4.16,11.5-7.63,15.48-1.69-3.52-2.51-7.43-2.1-11.74h.01Z" style="fill: #231815;"/>
      <path d="M393.69,642.62c.4,1.17,5.27-1.01,8.35,1.27,2.23,1.45,5.2,5.19,7.94,2.63.68-2.39,6.85-6.84,3.55-9.09.57-3.59-12.44-8.35-15.75-9.33,0,0-3.89-1.55-5.26-1.79-3.27-.56-3.87,1.01-3.87,1.01,2.68,3.01,8.57,8.81,8.37,12.39-1.85,1.66-3.51,2.35-3.32,2.91h0Z" style="fill: #231815;"/>
      <path d="M582.09,704.17c-.84-6.16-1.07-12.72-4.33-18.2-5.04,10.03-2.85,23.08-15.86,25.38-5.55,1.22-17,.7-18.96-4.24-2.15-5.42,2.61-14.14,4.2-20.15.5-1.73,3.03-3.72,1.05-6.01-4.53-1.48-11.43,1.19-13.75,3.95-.3.36,1.49.95,1.96.93,9.57-.48-6.19,20.44.39,27.65,2.64,4.86,8.62,5.14,12.78,6.27,11.05,4.72,21.92,1.15,31.64-4.82,1.14-3.47.89-7,.88-10.76h0Z" style="fill: #231815;"/>
      <path d="M514.39,670.6c3-.58,4.19-6.56,4.77-11.06.61-4.76,3.84-8.47,7.67-11.22l8.35-5.99c1.53-1.38,2.01-3.14,1.29-5,1.29-2.82,2.7-6.2,1.43-9.04-.37-.82-1.46-2.4-2.27-2.79-5.23-2.52-10.15-2.48-15.62,2.16,1.61,3.85,5.24.79,7.66,5.08.54.97.2,2.9-.31,4.32-.57,1.62,1.49,1.39,2.29,3.94.1.33-1.64.21-1.97.43l-7.93,5.44c.79-2.32,2.1-4.94.46-6.63-3.38.9-5.03,4.86-6.43,7.88l-3.39,7.36c-2.41,5.23-3.99,11.17.45,14.14.9.6,2.55,1.17,3.55.97h0Z" style="fill: #231815;"/>
      <path d="M539.11,677.36c2.92-2.07,10.36-5.79,6.95-7.86-6.2-3.76-11.91,7.1-19.67,8.08,2.34-6.38,7.14-15.19,14.32-16.73,10.97-12.03-12.72-3.56-17.05-.13-2.4,5.12,2.84,6.18,6.39,2.15-.37,9.14-16.02,16.78-12.77,25.55,6.64,3.52,10.75-9.81,18.02-6.32,0,0,2.56-3.86,3.8-4.74h0Z" style="fill: #231815;"/>
      <path d="M492.92,680.6c-.14-2.44,1.64-7.35.78-9.63-4.42-11.73-5.45-.88-5.89,5.06-.28,11.15-15.58,21.9-1.56,32.45,3.52-.77,9.33-1.68,8.16-6.52-.69-5.3-1.5-16.03-1.49-21.35h0Z" style="fill: #231815;"/>
      <path d="M499.32,639.76c-1.56.82-5.78,4.67-7.67,4.09-1.71-.74-2.18-3.99-3.72-3.09-2.11,2.7-.55,8.56,1.3,11.3,1.93,5.08,9.04,3.91,7.21,10.56,0,0,2.39-.52,2.83-1.14,4.61-6.41,10.25-14.87,6.27-22.49-1.65-.31-4.85-.15-6.21.76h0Z" style="fill: #231815;"/>
      <path d="M541.82,652.27c1.53,1.56,3.7,2.82,5.05,2.38,5.36-1.76,13.2-9.75,12.41-14.18-.8-4.54-11.23-3.89-17.79-3.35-1.16.1-2.61.56-3.14,1.21-.53.64-.32,3.21.5,3.35,3.42.58,6.63-2.48,9.52-.22.93.72,1.92,2.77,1.87,4.21,0,0-2.09.56-2.75.84-5.17,2.18-5.67,5.77-5.67,5.77h0Z" style="fill: #231815;"/>
      <path d="M523.94,694.63c-1.51,1.07-4.5,5.88-4.5,5.88-3.13,4.96-7.2,9.91-9.39,15.33,6.1,8.62,9.11-3.73,11.62-9.48,1.61-3.03,6.27-10.31,6.6-13.17.13-1.13-3.4.78-4.33,1.44h0Z" style="fill: #231815;"/>
      <path d="M500.25,674.48c-.73-2.15-3.61-9.23-3.68-5.75-.04,2.22.13,7.6.13,7.6l-.37,1.28c-.07.24.81.99.89,1.24l1.61,5.15c.22.71,1.33,2.01,2,2.41.63.38,1.91-.53,2.29-1.16.48-.78.07-2.07-.24-3l-2.63-7.76h0Z" style="fill: #231815;"/>
      <path d="M269.11,680.72c39.6-2.97,45.78-26.82,40.96-24.76-7.71,3.29-25.3,12.16-41.86,13.56-18.3,1.54-27.41-1.27-44.77-4.96-4.77-1.02,4.27,19.26,45.68,16.16h0Z" style="fill: #231815;"/>
    </g>
    <g>
      <path d="M388.74,675.9c3.75-.54,9.75-1.33,13.36-2.35-.88,2.71-3.85,5.38-5.46,7.7-1.06.81-3.07,5.17-5.63,9.52-2.77,4.7-18.32,13.46-12.57,15.71,2.2.86,16.64-6.86,19.42-7.93,1.27,3.73-1.39,8.26.23,12.23-1.04,2.49.71,7.22,1.22,7.83,1.4,2.07,2.48.52,3.63,2.18,8.4,3.51,14.2-5.9,18.25-11.96,8.26-13.68,8.44-20.93-6.93-26.82l-1.15-.7c-2.52-2.01.82-3.07,1.25-6.8.83-.44,3.86-2.55,4.87-2.21,3.86-2.88,8.42-5.67,13.47-5.82,5.38-.59,11.17,6.76,15.82,3.93.45-.27,1.04-1.84,1.04-1.84,1.44.28,2.71.26,3.64-.23,3.94-2.06,1.24-6.55.51-7.03-1.79-1.2-1.71-2.09-3.41-2.76-1.67-.14-2.71-1.31-4.36-1.48-1.27-.13-6.74-.99-8.34-.93-4.75.34-9.51-2.16-13.97-3.49-3.02.39-5.87,3.08-7.94,5.01-9.48,1.2-19.66,2.67-29.07,4.43-12,2.44-24.94,3.92-36.86.52-1.44,1.22,2.38,3.11,2.9,3.93,3.61,4.27,9.36,5.55,14.26,7.53,7.24.88,14.54,2.69,21.83,1.82h-.01ZM403.36,694.13c-.38-3.97,3.01-6.54,5.46-9.23,1.03,1.7,3.04,4.13,4.26,5.49-.39,5.22-4.16,11.5-7.63,15.48-1.69-3.52-2.51-7.43-2.1-11.74h.01Z" style="fill: #160604;"/>
      <path d="M393.69,642.62c.4,1.17,5.27-1.01,8.35,1.27,2.23,1.45,5.2,5.19,7.94,2.63.68-2.39,6.85-6.84,3.55-9.09.57-3.59-12.44-8.35-15.75-9.33,0,0-3.89-1.55-5.26-1.79-3.27-.56-3.87,1.01-3.87,1.01,2.68,3.01,8.57,8.81,8.37,12.39-1.85,1.66-3.51,2.35-3.32,2.91h0Z" style="fill: #160604;"/>
      <path d="M582.09,704.17c-.84-6.16-1.07-12.72-4.33-18.2-5.04,10.03-2.85,23.08-15.86,25.38-5.55,1.22-17,.7-18.96-4.24-2.15-5.42,2.61-14.14,4.2-20.15.5-1.73,3.03-3.72,1.05-6.01-4.53-1.48-11.43,1.19-13.75,3.95-.3.36,1.49.95,1.96.93,9.57-.48-6.19,20.44.39,27.65,2.64,4.86,8.62,5.14,12.78,6.27,11.05,4.72,21.92,1.15,31.64-4.82,1.14-3.47.89-7,.88-10.76h0Z" style="fill: #160604;"/>
      <path d="M514.39,670.6c3-.58,4.19-6.56,4.77-11.06.61-4.76,3.84-8.47,7.67-11.22l8.35-5.99c1.53-1.38,2.01-3.14,1.29-5,1.29-2.82,2.7-6.2,1.43-9.04-.37-.82-1.46-2.4-2.27-2.79-5.23-2.52-10.15-2.48-15.62,2.16,1.61,3.85,5.24.79,7.66,5.08.54.97.2,2.9-.31,4.32-.57,1.62,1.49,1.39,2.29,3.94.1.33-1.64.21-1.97.43l-7.93,5.44c.79-2.32,2.1-4.94.46-6.63-3.38.9-5.03,4.86-6.43,7.88l-3.39,7.36c-2.41,5.23-3.99,11.17.45,14.14.9.6,2.55,1.17,3.55.97h0Z" style="fill: #160604;"/>
      <path d="M539.11,677.36c2.92-2.07,10.36-5.79,6.95-7.86-6.2-3.76-11.91,7.1-19.67,8.08,2.34-6.38,7.14-15.19,14.32-16.73,10.97-12.03-12.72-3.56-17.05-.13-2.4,5.12,2.84,6.18,6.39,2.15-.37,9.14-16.02,16.78-12.77,25.55,6.64,3.52,10.75-9.81,18.02-6.32,0,0,2.56-3.86,3.8-4.74h0Z" style="fill: #160604;"/>
      <path d="M492.92,680.6c-.14-2.44,1.64-7.35.78-9.63-4.42-11.73-5.45-.88-5.89,5.06-.28,11.15-15.58,21.9-1.56,32.45,3.52-.77,9.33-1.68,8.16-6.52-.69-5.3-1.5-16.03-1.49-21.35h0Z" style="fill: #160604;"/>
      <path d="M499.32,639.76c-1.56.82-5.78,4.67-7.67,4.09-1.71-.74-2.18-3.99-3.72-3.09-2.11,2.7-.55,8.56,1.3,11.3,1.93,5.08,9.04,3.91,7.21,10.56,0,0,2.39-.52,2.83-1.14,4.61-6.41,10.25-14.87,6.27-22.49-1.65-.31-4.85-.15-6.21.76h0Z" style="fill: #160604;"/>
      <path d="M541.82,652.27c1.53,1.56,3.7,2.82,5.05,2.38,5.36-1.76,13.2-9.75,12.41-14.18-.8-4.54-11.23-3.89-17.79-3.35-1.16.1-2.61.56-3.14,1.21-.53.64-.32,3.21.5,3.35,3.42.58,6.63-2.48,9.52-.22.93.72,1.92,2.77,1.87,4.21,0,0-2.09.56-2.75.84-5.17,2.18-5.67,5.77-5.67,5.77h0Z" style="fill: #160604;"/>
      <path d="M523.94,694.63c-1.51,1.07-4.5,5.88-4.5,5.88-3.13,4.96-7.2,9.91-9.39,15.33,6.1,8.62,9.11-3.73,11.62-9.48,1.61-3.03,6.27-10.31,6.6-13.17.13-1.13-3.4.78-4.33,1.44h0Z" style="fill: #160604;"/>
      <path d="M500.25,674.48c-.73-2.15-3.61-9.23-3.68-5.75-.04,2.22.13,7.6.13,7.6l-.37,1.28c-.07.24.81.99.89,1.24l1.61,5.15c.22.71,1.33,2.01,2,2.41.63.38,1.91-.53,2.29-1.16.48-.78.07-2.07-.24-3l-2.63-7.76h0Z" style="fill: #160604;"/>
      <path d="M269.11,680.72c39.6-2.97,45.78-26.82,40.96-24.76-7.71,3.29-25.3,12.16-41.86,13.56-18.3,1.54-27.41-1.27-44.77-4.96-4.77-1.02,4.27,19.26,45.68,16.16h0Z" style="fill: #160604;"/>
    </g>
  </g>
  <g>
    <path d="M391.54,480.1c.13-.03.36-.14.55-.22-.18,0-.37,0-.54-.04-.14.24-.12.28-.02.25h.01Z" style="fill: #26573c;"/>
    <path d="M392.1,479.89c.13,0,.26-.02.39-.05-.13-.04-.26,0-.39.05Z" style="fill: #26573c;"/>
    <path d="M394.27,477.25c.09.17.14.32.13.61-.02.26-.08.52-.18.75-.19.47-.45.81-.48,1.25.53-.24,1-.92,1.05-1.56.03-.3-.02-.64-.12-.78-.1-.13-.23-.23-.39-.28h0Z" style="fill: #26573c;"/>
    <path d="M394,478.6c-.05-.31-.16-.6-.31-.83.04.19.06.4.05.61.09.07.18.14.26.22Z" style="fill: #26573c;"/>
    <path d="M394.51,474.95l.09.68c-.44.64-.59-.42-.89,0,0,.85.92.29.77,1.36.41-.08,0-1.7.65-1.53.21-.89-.38-.04-.62-.51h0Z" style="fill: #26573c;"/>
    <path d="M395.25,464.53c.06-.19.02-.35-.06-.5-.1.12-.12.28.06.5Z" style="fill: #26573c;"/>
    <path d="M395.19,460.51v.02c.08-.02.06-.04,0-.02Z" style="fill: #26573c;"/>
    <path d="M395.25,457.94s.01.03.02.05c.06-.03.07-.05-.02-.05Z" style="fill: #26573c;"/>
    <path d="M395.37,463.17l-.12.09c.21-.26-.15-.64-.18-.94-.09.03-.16.07-.22.11-.01.15-.04.35-.1.65-.19.36.24.6.44.95.26-.33,1.09-.43.18-.86Z" style="fill: #26573c;"/>
    <path d="M355.37,491.3c-.11-.02-.2-.04-.29-.05.14.11.23.11.29.05Z" style="fill: #26573c;"/>
    <path d="M391.48,463.35c-.21-.21-.18-.53-.17-.85l.3.29c-.07-.2-.16-.44-.3-.46,0-.13-.02-.26-.07-.38-.14.09-.62.3-.84.76.33-1.19.15-2.12.83-3.14.24.04.53.47.56.34.12-.51-.29-1.06-.65-1.02-.02-.12-.03-.2-.03-.28.2-.1.42-.22.46-.46.07-.06.14-.15.17-.32-.65-.17-.32-1.15-.62-1.36-.07.23-.06.51-.04.8-.43-.41-.93-.78-.58-1.1.41.76.68-.81.86.34.83-.81-.59-.42-.3-1.28l.23-.39c-.27.05-.51,0-.66-.42.22-.1.63-.19.56-.42-.7.78-2.65-.26-3.44.44l.09-.42c-1.3-.18-3.03-.6-3.23-1.29.19.08.12-.03.16-.16-1.17.25-1.6-.67-2.89-1.04.2-.7-.37-1.07-.96-1.42s-1.2-.69-.96-1.3c-1.04-1.07-2.03-1.48-2.88-1.94-.83-.48-1.62-.92-2.2-1.91.61.22.43-.8-.05-1.01l-.17.34c-.36-.44-.68-1.15-1.09-1.84-.39-.72-.83-1.45-1.62-1.94-.02-.38.56-.33.42-.74h-.81c.12-.36.12-.62.13-.88-.76-.56-1.35-1.05-1.74-2.03.26-.29.74-.46.47-1.01-.41-.34-.83-1.1-1.18-2-.14-.47-.27-.97-.38-1.47-.15.09-.31.18-.45.28-1.29-.08.14-.83-.11-1,.2.06.33.09.43.09-.02-.12-.04-.22-.06-.34-.35.08-.68.03-.85-.36-.67.03-.97,0-1.63.38.33-.19.62.11.31.36-.55-.19-1.94.01-1.86-.67-3.17.13-6.71-.02-10.11,0-.57.35.43.14.12.39-.83.46-.66-.24-1.32.13l.28-.38c-.99-.06-2.04.64-3,.98.16-.43-.79-.36,0-.61-.47.07-1.04-1.85-1.4-1.46l.53,1.79c-.03.18-.68.07-.62.18-.41-.35-.91-.77-1.2-.77-.14-.45.58-.35.97-.34.06-.75-1.31-.48-.75-1.17-.84.12.12.39-.38.66l-.72-.16c.08,0,.14-.01.18-.02-.1,0-.2.02-.29.02h.1l.56.25c-.61.22-.82.8-1.63.38-.29.24-.55.49-.86.73-.15-.6-1.01-.11-1.73-.25.12-.13.25-.25.38-.38-.99.02-1.4-.09-2.09-.21.35-.6.94.04,1.04-.47l-.61-.06c-.2-.01-.4,0-.6,0,.12.33-.39.71.42.77-.35.38-.53.72-.87,1.03-.32.32-.87.62-1.61,1.35-.51.16-.46-.12-.32-.46.14-.33.4-.69.05-.77-1.03.71-1.09,1.68-.93,2.38.18.73.52,1.31.44,1.91-.16.76-.06,1.19.04,1.57.05.2.12.39.17.63.02.1.04.22.07.34.02.11.03.24.03.38-.39-.37-.42.81-.8,1.02l-.41-.46c.12.35-.03.69-.32.58.53-.06.49,1.5.74,2.3l.45-.14c.15.62.43,1.49.32,2.15.14.98.55.76,1.04,1.52-.41.42-.89.37-1.39.23.23-.26.1-.71.24-1.14-.39-1.24-1.34-2.21-1.12-3.45-1.1-.54.13.84-.26,1.44-.07-.02-.09-.06-.1-.11,0,.05,0,.1-.03.15-.13-.44-.31-1.17-.87-1.29.11.74,1.09.54.62,1.46.31.69-.56,1.24-.64,1.66.41.46,1.29.48,1.12,1.6l-.61-.49c-.02,1.27.9.6.87,1.77.07-.41.6.4.62-.39.33.39.39,1.24.21,1.88.09.17.21.04.42.07.43-.71-.41-1.12.2-1.7l-.66-.49c.24-.66.77-.72,1.03-.32-.03-.19-.12-.35,0-.48,1-.11-.36.79.49,1.02l-.07-.46c.24-.07.38.06.46.28v1.56c-.26.61-.39,1.14-.82,1.19l-.2-.91c-.38.47.22,1.16.2,1.69-.06.03-.11.09-.15.15.04-.03.08-.04.13-.04-.02.11-.08.21-.19.3-.03.46.26,1.15.11,1.58l.42-.05-.24-.06c.02-.43.28-1,.59-.68.29.96-.52,1.15-.88,1.38-.64-.22,0-.94-.21-1.42-.64.29-.07.98-.49,1.96-.7-.4.01-1.15-.63-1.37-.12.8.37,1.01.2,1.85-.32-.11-.35-.93-.77-.87l-.2.54c-.04-1.32-.87.23-1.04-.8-.29.49.57.68.12,1.37.3-.19.86-.74,1.13-.08l-.21.75c-.34.31-.74-.78-1.03-.3l.24.78c.21-.03.31-.4.6-.17-.22.45.8.74,1.11,1.28-.02.43-.06.76-.3.91.61,1.07.59,2.43,1.17,3.42-.42-.67-.71.03-1.03.43-.09-.78-.74-.78-1.16-.73.07.47.74.78.96.54-.27.79.45.54.01,1.24-.23.45-.64-.23-.89-.07-.03.85.79.23.64,1.16-.09-.05-.11-.14-.23-.06-.14.5.17,1.04.49,1.15-.85.53.09,1.5-.74,1.39.22,1.21.45-.18.74.06.37.49.06,1.41-.07,1.69-.02-.3-.24-.57-.11-.86l-.57.25c-.41,1.5,1.3.96.8,2.41-.3-.75-.43-.25-.84-.62.14.23-.02,1.36.42.67-.05.55-.15.92-.26,1.3.22.48.38,1.01.75,1.29-.06.76-.47,1.33-.72,1.69.21.8.13,1.57.06,2.36-.04.39-.07.79-.07,1.19,0,.2.01.4.03.61.02.15.03.3.05.45.02.17.04.34.07.52l.04-.21c-.06,1.09.14.81.34.55.2-.25.41-.46.4.54-.35-.05-.48.29-.53.77-.05.47,0,1.02-.09,1.42.12,1.26.98,2.2,1.93,2.7.48.25.98.42,1.47.53.5.12,1.02.25,1.62.38-.06.13-.3.34-.79.28.93.22,1.9.18,2.8.2.31,0,.61,0,.91-.01h.78l-.05.09c1.7.57,3.24-.11,5-.28-.14.09-.18.35-.29.45.89.16,2.3.26,2.93-.38,1.05.69.7-.21,2.05.46.08.12-.13.12-.22.14.67.23,1.14.16,1.81.25,1.49-.44,1.86-1.35,3.58-1.07.09.96-1.06.24-1.1,1,.34-.17.64-.36,1.12-.14-.29.37-.06.24-.26.58.36.25,1.47-.99,1.46-.9.02-.18-.1-.29-.45-.26.4-.59,1.7-.05,2.53-.28-.27-.02-1.13-.2-.8-.66,1.12.2,1.5-.71,2.28-1.09,1.03.43-.76.8-.57,1.47.17.24.59.78.15,1.04.93.14,1.6-.43,2.43-.57l-.02.19c1.16-.08,2.39-.9,3.36-.52l-.51-.22c.19-.11.77-.06,1.1-.44-.04.32.72.6.41.86.52-1.01,2.63-.61,3.21-1.56.31.25.06.66-.03.89-.73-.09-.98-.29-1.36.11.61-.01,1.05.25.96.48.61-.63,2.06-.87,2.36-1.5.44.32.87.49.71,1.01,1.86-.32-.92-1.61,1.19-1.6.96.51-.94.68.39.86l-.24.08c.95,1.35.67-.96,1.75-.91.14.73-.75.52,0,1.05.99-.18,1.43-1.27,2.42-1.03l-.16.31c.63-.06,1.87.09,2.5.04.03.14-.06.12-.18.16,1.17.28.49-.37,1.44.13l.27-.35c-.48-.25-1.41-.61-2.02-.2.44-.3-.26-.66-.56-1.06h2.57c.79,0,1.47-.46,1.78-1.14-.02.09-.03.19-.07.28l.15-.02c.05-.2.05-.41.04-.6.04-.15.07-.31.07-.48v-3.58c.3.21.72.35.66.87.15-.42.47-.34.71-.09.06-.47.24-1.44-.15-1.27l-.09.17c-.24-.04-.33-.3-.44-.43,0-.64.42-.3.59-.42.15-1.06-.92-.09-.89-1.06l.18-.13c-.19-.38-.25-.92-.57-1.18v-1.71c1.03.06-.21,1.68.47,2.21.27-.51.62.29.92.51l-.56-1.61c.18-.13.83-.6.35-.89l-.03.13c-.15-.64-.68-.47-.5-1.02.12-.09.33.08.41.13.12-.51-.3-.43-.41-.77.12-.51.53.26.68-.17-.5-.59.12-.94.09-1.45-.64.19-.93-1.48-1.41-1.21v-.71c.29.22.6.43.91.27l-.03.98c.92-.16-.6-2.05.43-2.7.04-.52-.09-.39.37-1.38l-.82.17c.19-.51.64-.68.79-.7-.05-.3-.03-.57,0-.85.12.07.23.18.27.36.46-.39.29-.5.04-.63l-.02-.02ZM389.55,476.71l.06-.47c.18.72.8,1.23.47,1.78-.2.28-.41.05-.6-.21v-1.11h.07ZM389.5,470.59v-.86c.34.31.19.57,0,.86ZM389.51,463.2v-.8c.15.08.3.18.43.32-.1.34-.25.45-.43.48h0ZM391.22,463.19h0l.15.1s-.1-.07-.15-.1Z" style="fill: #26573c;"/>
    <path d="M392.45,455.34s.05-.05.07-.08c-.03-.2-.05-.39-.06-.59-.3-.09-.61.01-.9.1.23.23.09.78.24.67l-.06-.38c.36.38.12,1.83.65,2.72l.27-1.79c-.05-.2-.08-.4-.11-.6-.03-.02-.06-.03-.09-.05h-.01Z" style="fill: #26573c;"/>
    <path d="M395.34,473.08c.12-.09.42-.3.45-.43l-.27-.13-.18.55h0Z" style="fill: #26573c;"/>
    <path d="M396.65,463l-.24.81c.24.26.65-.68.24-.81Z" style="fill: #26573c;"/>
    <path d="M396.71,460.83c-.53-.25.24-.81-.27-.98.15.21-.27.94.27.98Z" style="fill: #26573c;"/>
    <path d="M395.21,456.49c.38.04.35.38.26.77-.12-.13-.29-.21-.35-.38.3.64.24.68.41,1.19.27-.51.44-1.28.92-1.19-.36-.38-.89-.85-1.24-.38h0Z" style="fill: #26573c;"/>
    <path d="M402.07,469.4c-.01.08.01.12,0,0h0Z" style="fill: #26573c;"/>
    <path d="M442.66,489.52l-.06.17c.05-.07.06-.12.06-.17Z" style="fill: #26573c;"/>
    <path d="M460.98,438.45c0-.51,0-.96-.02-1.36-.05-.8-.23-1.37-.52-1.94-.3-.55-.71-1.07-1.38-1.53-.68-.46-1.57-.78-3.01-.8l.47.14c-.28.02-.55.04-.82.05-.1,0-.2.01-.3.02h-.21c-.27,0-.47-.04-.56-.15-1.97-.05-4.01-.23-5.28-.58l-.28.32c-.42-.02-1.04-.51-1.24-.06l-.89.14c-.57-.03-.92.16-1.56-.03h0s-.08-.03-.12-.04v.03c-1.29-.15.01.29-1.46.1-.47-.23-.52.41-1.24.34l-.72-.47c-1.3-.27-1.52.2-3.41.2-.9-.17-1.34-.57-.74-.92-.82.43-.38.28-1.47.48-.17-.18-.05-.21.19-.37-.97-.21-.6.16-1.33.15-.21.33-.46.86-.7.88l.28.1c-.77.18-1.62.26-2.52.09l.03-.17-.93.08c.03.1.06.21.11.32-.35.42-.92,1.15-.95,1.83,0-.19,0-.34-.2-.25-.43.54.27.98.16,1.71l-1.07-.14c-.49,1.2-.34,2.52-.89,3.32l-.14-.05c-.59.76-1.17,1.48-1.09,2.65-.46.24-.63-.06-1.19.34.54.43.2.72-.19,1.07-.4.34-.82.74-.56,1.43l-1.46.3c.24.62-.58,1.58-.89,2.11.04-.48-.86,0-1.39.48.37-.1-1.15,1.03-1.47,1.83l-.19-.32c-.81.47-1.66,2.13-2.5,1.36-.7.26-.86.84-1.05,1.43-.4.05-.78.14-1.19.15l.17-.11c-.44-.91-.98.53-1.71.39l.47.13c.11-.1.25-.1.47.13l-.47-.13c-.18.16-.28.58-.45.78l-.02-.58c-.35.22-.4.67-.55,1.02-.06-.45-.79-.29-1.29-.14.44-.06.02.23.02.23.02.23-.55.13-1.24.12-.34,0-.71.02-1.07.1-.36.06-.71.2-1,.48-.13.2-.26.4-.14.67-.44-.19-.89-.09-1.32.09.11,1.56.22,3.04.31,4.94-.68,1.85.23,4.63-.16,6.62l.27.55c-.43,1.33.09,3.35-.33,5.21.12.46.15.7.16.8.01-.08.06-.21.24-.25-.12.53.03,1.61-.32,1.53l-.03-.14c-.34-.08.16,1.61-.14,2.21l.37-.32-.06,1.01-.07-.27c.2,1.09.28,2.04.3,2.9v.94c0,.35,0,.69.02,1.02.05.65.21,1.24.51,1.79.59,1.1,1.69,1.93,3.02,2.1.34.05.7.06,1.08.05.19,0,.38-.01.57-.02h.29l.19-.03c.46-.04.94-.1,1.45-.2-.55.4.81-.21.86.23,1.03.55,1.92-.12,2.77-.26,0-.02.01-.05.06-.08l1.48.05c-.89.55,1.07-.46.25.01,3.87.42,8.92,0,13.4.21l-.2-.14c1.14.03,2.55-.14,3.41.09.86.23,1.89-.36,2.22-.38.95-.24,1.8.25,1.4.22,1.01-.07,1.96-.57,3.36-.35.48.47,3.83-.45,3.87.07l.02-.04c1.79.38,3.49-.26,5.42.09,0,0-.04.04-.1.07l3.94-1.6-.16-.26h.16c1.08,0,1.96-.87,1.96-1.95v-6.19c.21-1.28.61-2.88.62-3.4.26-.84-.06-1.89.07-2.94.07-1.68.3-.84.49-1.68.13-1.05-.24.21-.26-.21l.29-1.26c.02.73.15.34.23.2.04-1.09.42-2.81,0-3.14.2-1.47.37-1.47.39-2.1-.08.21-.15.63-.23.63.18-.59-.04-.28-.09-.04-.18-.9.76-4.66.31-4.85h.08c-.34-.21-.67.13-.86-.5l.15-.42-.14-.63c.11-.42.2-.21.24-.21-.15-1.03.03-2.46.08-3.7l-.93,1.31c.22-1.05.65-2.94.36-3.15l.31-.63c.6-2.1-.26-1.47-.08-2.31l.34-1.06v1.05c.17-1.05.28-1.47.5-2.31h0s-.03.09-.05.09v-.15c-.18-.13-.29-.68-.28-1.42.05-1.05-.2-1.87.16-3.55l-.35-.42.1-.63.03-.16.03-.23.05-.46.28-.04v1.36c0,.42.02.87.03,1.34.02.93.04,1.91.06,2.7l.13.03c0-.94-.12-2.01-.09-2.63.06-.3.34-1.08.53-.52l-.27-.58v-1.09.03Z" style="fill: #26573c;"/>
    <path d="M393.88,375.5s-.04.01-.07.02l.12.19c-.01-.1-.03-.17-.05-.21Z" style="fill: #26573c;"/>
    <path d="M384.89,399.33c-.06-.07-.13-.15-.22-.23-.02.14-.02.27-.03.39.08-.05.17-.11.25-.16Z" style="fill: #26573c;"/>
    <path d="M373.68,410.72c.11.17.19.34.25.51l.18-.36c-.1-.16-.23-.24-.43-.15h0Z" style="fill: #26573c;"/>
    <path d="M336.02,409.99c.13.92.22,1.86.28,2.8.03.47.05.95.07,1.42l.02.71v1.27c.03,1.01.27,1.9.78,2.69.51.78,1.25,1.41,2.09,1.77l-.19-.04c.72.32,1.5.43,2.35.4.1.03.11.07.02.1.18-.02.37-.03.56-.05l.29-.02h.15l.08-.02c.22-.02.45-.03.69-.04.48-.01.99,0,1.51.03,1.04.05,2.13.16,3.07.23l-.11.04c6.99.05,13.66-.18,20.4-.23,0-.1,0-.19.02-.29.09-.66.18-1.31.32-1.93.07-.31.16-.62.26-.91.11-.29.27-.57.43-.84.57-.61.54-1.54.6-2.51.09-.96.21-1.99.83-2.69.28-.24.22.88.69.47-.48-.72-.03-1.42.39-2.18.22-.37.42-.77.57-1.19.16-.41.21-.85.08-1.37l.17.83.72-.69c-.18-.29-.4-.16-.38-.7.3-.38.54-.55.75-.7.23-.14.43-.27.64-.56.27.25.48.89.84-.14l-1.01-.4c.52-.31.73-.94.98-1.52.28-.56.63-1.05,1.3-1.05-.12.17-.24.21-.12.28.61.39.72-.74,1.32-.95l-.48-.2c.49-.79.84.1,1.36-.4l-.45-.47c.23.17.6.08.85.02l.61-1.33-.02.24c.28-.44,1.08.01,1.14-1.03-.13.02-.41.18-.24-.07.87-.02.65-.8,1.25-.08.02-.41.16-.8.4-1.18.24-.37.61-.68,1.01-.99.8-.62,1.79-1.15,2.68-1.5l.08.46c.13,0,.09.11.04.22l-.04-.22c-.99.53.26,1.02.06,1.57,1.45-1.16.66-1.09,1.49-2.2.61-.05,1.27-.16,1.9-.41.57-.2,1.12-.52,1.69-.76,0-2.85.21-4.77-.05-7.76l.09.21c.1-.55-.84-.86.32-6.93h.04c0-.21-.09-.21.02-.63l-.26,1.05c-.1-.63-.3-1.18-.33-2.02.05-.18.13-.24.2-.26l-.07-2.06.27-.63c-.15-.63-.71-.34-.39-2.02-.4.63-.24-.83-.44-.63.05-.08.12-.28.19-.43,0-.17-.02-.36-.03-.56-.03-.31-.1-.63-.2-.95-.23-.64-.63-1.25-1.14-1.68-.51-.44-1.09-.71-1.6-.82-.51-.12-.92-.08-1.14-.04,0,0,.12.02.32.05.2.04.5.12.82.27.65.29,1.41.96,1.74,1.85.17.44.23.92.19,1.37-.02.26-.06.35-.1.49-.04.14-.07.27-.1.4-.14.51-.27.96-.38,1.22.11-1.41-.05-.37-.18-.09l.1.09c-.1.84-.35.84-.42,1.26.02,0,.04-.01.07-.02l-.03-.05s.07-.02.1.03c.05-.01.1.03.08.26l-.03-.04c.04.35,0,.96-.02,1.22h-.21c.15.24.1.88-.02,1.64v-6.19c.01-1.08-.86-1.96-1.94-1.96h-.16l-.95-1.51-3.41-1.44-9.24.3-7.38-.57-17.96.16-1.28.4c-.62-.12-1.28-.2-1.95-.25-.34-.02-.68-.04-1.03-.05-.54,0-1.09,0-1.65-.01-.62,0-1.18.11-1.71.3s-1.04.49-1.48.86c-.88.75-1.46,1.83-1.62,2.96-.09.58-.06,1.2-.07,1.81v.62l-.02.49c-.03.65-.07,1.28-.15,1.89l.34.08c.02,1.07-.19,1-.25,1.26.06,9.97.5,20.23.05,29.2-.23.86-.1,3.5-.34,4.17h0Z" style="fill: #26573c;"/>
    <path d="M378.34,404.35c-.02.11.01.23.07.35.23-.25.47-.5.7-.74-.05-.1-.06-.27,0-.56-.34.22-.55.65-.77.95h0Z" style="fill: #26573c;"/>
    <path d="M396.3,378.44v.05c.15,0,.09-.07,0-.05Z" style="fill: #26573c;"/>
    <path d="M395.88,373.32c.03-.21.11-.41.15-.63.01-.37-.07-.23-.17-.01.01.38.03.64.03.64h0Z" style="fill: #26573c;"/>
    <path d="M394.06,374.19l-.12-.12c.03.22.07.21.12.12Z" style="fill: #26573c;"/>
    <path d="M451.32,429.16l-.73.18c.27,0,.49-.09.73-.18Z" style="fill: #26573c;"/>
    <path d="M402.38,375.92l-.05-.06s.04.06.05.06Z" style="fill: #26573c;"/>
    <path d="M450.7,428.17s.04.04.07.06c.05-.02.1-.03.15-.03l-.22-.03Z" style="fill: #26573c;"/>
    <path d="M414.14,398.62c1.51.82,2.93,1.78,4.27,2.85-.13-.63.02-1.7-1.13-2.11,1.37.05.3-.41.42-.67-.92.91-2.58-.33-3.56-.06h0Z" style="fill: #26573c;"/>
    <path d="M419.52,401.44c-.48-.39-.57.11-.71.34.15.13.3.26.46.4.32-.07.74-.05.72-.4l-.46.03c-.04-.12.03-.24,0-.36h-.01Z" style="fill: #26573c;"/>
    <path d="M413.23,398.15c.19.1.38.19.57.29-.11-.27-.32-.32-.57-.29Z" style="fill: #26573c;"/>
    <path d="M461.08,380.18l-.19-.31c.09-1.65.16-3.77.16-5.09-.01-.05-.03-.11-.04-.17-.01-.08-.03-.08-.05-.23-.03-.25-.06-.51-.09-.79-.06-.56-.19-1.1-.38-1.67l.07.11c-.39-.95-1.15-1.77-2.1-2.25-.48-.24-.99-.39-1.54-.46-.28-.03-.56-.04-.85-.05h-.43c-.16-.02-.18-.02-.28-.03.08-.07-.05-.13.1-.17-.31.19-.76,0-1.04,0l.33.13c-.37.17-.9,0-1.08-.12l-.58.19s-.1-.05-.11-.07l-.1.09-.31-.23c-.14.05-.92.1-1.16.33-.06-.08-.6-.14-.18-.18l-2.13-.07.33.08c.04.18-.6.29-.93.2.43-.14.04-.25-.15-.38-.29.09.25.16.1.25-.36.12-1.13.18-1.33.1l.22-.07c-.49.06-.72-.24-1.21-.23-.44.14-.76,0-.67.31-.63.06-.24-.21-.45-.24-.3.14-1.18.05-1.29-.1-.35.44-1.7-.16-1.83.21l-.52-.21c-.02.1-.12.32-.54.36-.4-.11-.3-.28-.42-.38l-.27.37c-2.28-.4-5.3-.14-7.8-.47-1.12.08-2.53.25-3.83.19l.14-.05-1.3-.1.94.17c-.28.04-.5.11-.78.11-1.42-.16-3.32-.35-5.07-.16-1.14.42-.75-.38-1.84-.07.09-.04.13-.1.21-.14-1.17.14-1.81.21-2.98.46.14-.42-.76,0-.66-.21l-.1.17c-.26-.11-.87-.14-.79-.27l-.52.21-.04-.18c-.68-.01-2.16.13-2.52-.23-.4.23-3.12-.23-4.61,1.16-.8.63-1.37,1.56-1.59,2.55-.12.5-.12,1.04-.13,1.56,0,.32-.02.64-.03.95.14.3.15.92.17,1.41l-.21.52c.06.49.33,1.02.19,1.48-.02,0-.04-.02-.05-.05.04.5-.07.98.12,1.45-.01.55-.12,1.09-.32.92.35.05-.05,1.17-.05,1.17,0,0-.16,4.96-.2,11.24.38-.04.79-.16,1.25-.43l-.05.86-.58-.52c.34,1.07-.03.72.18,1.84.3-.33,1.82-.61,1.39-1.18l-.43.23c.51-.68,1.13-.47,1.69-.14.56.34,1.1.73,1.65.32.42.13.85.3,1.26.54.4.25.8.53,1.17.81.75.54,1.43,1.04,1.97,1.32-.12.03-.35.08-.28.19.63-.27,1.37.08,1.96.59.6.5.97,1.27,1.05,1.67.35-.04.88.02,1.37-.02l-.48.05c2.69,2.43,4.96,5.09,7.36,7.68.26.57-.61-.67-.67.08,1.03.27.84.98,1.56,1.56-.92-.03.26.69-.42.98l.97.87-.48.46.77.42c.1.3-.47.2-.27.66.64.07.74.38.92.83.18.18.32.41.37.7-.18-.26-.28-.49-.37-.7-.35-.37-.89-.55-1.3-.78-.39-.24-.61-.54-.35-1.2-.55-.2-.24.29-.5.82-.32-.3-.38-.54-.48-.82s-.19-.62-.67-1.03l1.03-.07c-1.18-1.3.35.1.32-.88-.55-.32-1.09-.63-1.62-.93l.1-.22c-.17-.3-.55-.68-.99-.95-.44-.28-.91-.47-1.3-.41l.43-.18c-.26-.28-.48-.19-.72-.34l.3-.2c-.35-.22-.75-.39-1.13-.57h.12l-.92-1.09h.34c-.26-.24-.53-.41-.8-.54-.29-.12-.58-.2-.86-.28-.02,0-.03-.01-.05-.02,4.95,4.71,8.26,11.12,8.97,18.3.5-.02,1.1-.04,1.59-.13-.01-.03-.02-.06-.03-.09-.23-.5-.5-.93-.78-1.42-.06-.04-.09-.07-.05-.09l.05.09c.15.1.53.19.59-.2l-.67-1.09.09.07c.28-.82.07-1.29-.15-1.74-.24-.46-.5-.91-.55-1.75-.19-.23-.6.09-.79-.14.14.32.27.65.36.98-.47-.82-.93-1.75-.27-2.24-.48-.39-.9-.8-1.42-1.14.99-.41,1.87,1.08,2.7,1.78.46.62.5,1.43.59,2.2.07.78.22,1.53.55,2.19l-.09-.07c-.6.69-.22,1.41.17,2.18.11.22.21.44.28.66.13.08.31.14.7.2.49-.01.56-.04.72-.18.47.1,1.36-.04,1.38.14.11-.15.42.03.69-.09l.05.08-.04-.18c.84.39,1.42-.22,2.26.13l-.15.05.36-.07c.06.08-.09.12-.11.22l1.65.04-.32-.13c.35-.02.58-.19.98-.08-.66.26.55.01.66.21l-.35.07c.32-.01.47-.08.45-.19.63-.06.43.34,1.01.15h-.41c-.12-.11.18-.25.45-.25.07.03.26.11.05.13.5-.07,1.24.03,1.46-.04.27.06.18.18.03.23,1.06-.15.48.03,1.54-.12l-.02.1.36-.12.52.21-.19-.13c.35-.02.57-.09.97-.03l-.16.15c.98-.08,1.14.25,2.07.05.06.03-.08.07-.16.1.87-.23.65.26,1.52-.02-.05.05.04.11,0,.15l.4-.09-.03.2.32-.29.24.21.15-.1c.42.38,1.02.1,1.6.38l-.1-.25c.73-.26,1.57-.18,2.44-.07.22.03.44.06.66.08l.33.04.53.03c.73.05,1.44-.03,2.02-.39l.06.19c.31-.23.58-.51.8-.81.55-.3-.15.37.05.32.44-.45.43-.63.48-.78.02-.17.13-.32.35-.97.34-.61.08.31-.06.64.32-.6.44-1.42.4-2.21,0-.2,0-.39-.01-.58v-.36c0-.22.02-.41.05-.56-.03-.01-.06-.05-.07-.02-.09-.57,0-1.31,0-1.94.09.02.11.17.12.33.01-.22.08-.53-.02-.72l.17.24c.04-.48-.12-1.4.08-1.51-.08.06-.23.03-.22-.38.31-.23-.13-1.13.04-1.79.07.08.09.57.09.43.08-.33-.06-.63-.15-.92l.12.09-.17-1.55c.3-.23-.04-1.46.18-1.35.01-.55-.14.46-.17-.24.13-.19-.06-.63.14-.6l.02.07v-.49l.18.31c-.04-.42-.24-.73-.38-.75.11-.4.02-.96.2-1.14l.05.15c-.08-1.12.54-1.85.21-2.73.03-.07.08-.06.07.08v-.69l.16.17-.22-1.14h.1c.04-.74,0-1.92-.04-2.89l.05.15c-.15-1.06.1-1.02-.01-1.8.03.03.04.05.04.08v-.7l.09.15c-.21-.52.28-1.48.1-1.16-.09-.29-.21-.8-.33-.88,0-.76.13-.19.21-.66.01-.55-.16-.65-.07-1.39l.1.02c-.02-.35-.09-.57-.1-1.05l.05.14c-.21-.79.3-.99-.14-1.61.08-.33.02-.96.22-.93-.13-.99-.19-1.76-.26-2.74.33-.16-.02-.21.17-.8l-.18.04c-.02-1.39.42-2.98.35-4.51l.18-.04.03-.09Z" style="fill: #26573c;"/>
    <path d="M413.03,396.69c-1,.05-2.58-.36-3.91-.24-.97-.74-1.83-.82-2.63-.87v.19c2.03.45,3.99,1.1,5.85,1.95.27-.29.47-.65.7-1.03h-.01Z" style="fill: #26573c;"/>
    <path d="M342.48,357.26c-.01.08.01.12,0,0h0Z" style="fill: #26573c;"/>
    <path d="M382.43,361.28c.05-.07.06-.12.06-.17l-.06.17Z" style="fill: #26573c;"/>
    <path d="M395.89,328.02c.06-.22.07-.8.07-1.54l-.21-.05.08,1.55s.04.04.06.04Z" style="fill: #26573c;"/>
    <path d="M337.99,351.34c0,.51,0,.96.02,1.36.05.8.23,1.37.52,1.94.3.55.71,1.07,1.38,1.53.68.46,1.57.78,3.01.8l-.47-.14c.28-.02.55-.04.82-.05.1,0,.2-.01.3-.02h.21c.27,0,.47.04.56.15,1.97.05,4.01.23,5.28.58l.28-.32c.42.02,1.04.51,1.24.06l.89-.14c.57.03.92-.16,1.56.03h0s.08.03.12.04v-.03c1.29.15-.01-.29,1.46-.1.47.23.52-.41,1.24-.34l.72.47c1.3.27,1.52-.2,3.41-.2.9.17,1.34.57.74.92.82-.43.38-.28,1.47-.48.17.18.05.21-.19.37.97.21.6-.16,1.33-.15.21-.33.46-.86.7-.88l-.28-.1c.77-.18,1.62-.26,2.52-.09l-.03.17.96-.08.06.21,1.37-.06-.19-.06c.32-.03,1.38-.1,1.98.01l-.02.12c1.7.37,3.11-.11,5.1-.14l-.26.24c.68.24.19-.37,1-.25l.04.3c.71-.39.92.08,1.41.23l-.23-.39.92.08c1.02.13.62.49.47.69l.69-.3.13.34c.51-.4.51.07,1.39-.15.07.13-.15.2.15.26l1.47-.48-.88.21.11-.5c.92-.38,1.25.06,1.9-.08l-.45.15c1.07-.12,1.13.09,1.73.21-.19-.09-.47-.23-.04-.3.32-.03.13.18.66.23.12-.36,1.38-.4,2.43-.64.01.05.01.1-.04.15.24-.15.33-.26.8-.45-.01.15-.02.3-.05.46.23-.26.43-.54.59-.83.28-.17.51-.5.66-.76.16-.26.24-.45.33-.34-.04.12-.08.24-.13.36.47-.69.74-1.44.8-2.31.04-.43.02-.88.04-1.32l.02-.84.3-.04c-.41-.3.16-1.64-.35-1.54.28-.57-.19-2.24.38-1.9.05-1.98-.5-3.05-.22-5.45.49-.86.34-3.2.39-4.75-.2-3.02-.38-4.97-.53-8.05.68-1.85-.23-4.63.16-6.62l-.27-.55c.43-1.33-.09-3.35.33-5.21-.12-.46-.15-.7-.16-.8-.01.08-.06.21-.24.25.12-.53-.03-1.61.32-1.53l.03.14c.34.08-.16-1.61.14-2.21l-.37.32.06-1.01.07.27c-.2-1.09-.28-2.04-.3-2.9v-.94c0-.35,0-.69-.02-1.02-.05-.65-.21-1.24-.51-1.79-.59-1.1-1.69-1.93-3.02-2.1-.34-.05-.7-.06-1.08-.05-.19,0-.38.01-.57.02h-.29l-.19.03c-.46.04-.94.1-1.45.2.55-.4-.81.21-.86-.23-1.03-.55-1.92.12-2.77.26,0,.02-.01.05-.06.08l-1.48-.05c.89-.55-1.07.46-.25-.01-3.87-.42-8.92,0-13.4-.21l.2.14c-1.14-.03-2.55.14-3.41-.09-.86-.23-1.89.36-2.22.38-.95.24-1.8-.25-1.4-.22-1.01.07-1.96.57-3.36.35-.48-.47-3.83.45-3.87-.07l-.02.04c-1.79-.38-3.49.26-5.42-.09,0,0,.04-.04.1-.07l-3.94,1.6.16.26h-.16c-1.08,0-1.96.87-1.96,1.95v6.19c-.21,1.28-.61,2.88-.62,3.4-.26.84.06,1.89-.07,2.94-.07,1.68-.3.84-.49,1.68-.13,1.05.24-.21.26.21l-.29,1.26c-.02-.73-.15-.34-.23-.2-.04,1.09-.42,2.81,0,3.14-.2,1.47-.37,1.47-.39,2.1.08-.21.15-.63.23-.63-.18.59.04.28.09.04.18.9-.76,4.66-.31,4.85h-.08c.34.21.67-.13.86.5l-.15.42.14.63c-.11.42-.2.21-.24.21.15,1.03-.03,2.46-.08,3.7l.93-1.31c-.22,1.05-.65,2.94-.36,3.15l-.31.63c-.6,2.1.26,1.47.08,2.31l-.34,1.06v-1.05c-.17,1.05-.28,1.47-.5,2.31h0s.03-.09.05-.09v.15c.18.13.29.68.28,1.42-.05,1.05.2,1.87-.16,3.55l.35.42-.1.63-.03.16-.03.23-.05.46-.28.04v-1.36c0-.42-.02-.87-.03-1.34-.02-.93-.04-1.91-.06-2.7l-.13-.03c0,.94.12,2.01.09,2.63-.06.3-.34,1.08-.53.52l.27.58v1.09-.04Z" style="fill: #26573c;"/>
    <polygon points="395.11 326.9 395.11 326.97 395.31 326.68 395.11 326.9" style="fill: #26573c;"/>
    <path d="M395.16,341.93c0,.25,0,.48.05.64.05-.7.01-.74-.05-.64Z" style="fill: #26573c;"/>
    <path d="M401.01,349.22c-.02.08.02.12,0,0h0Z" style="fill: #26573c;"/>
    <path d="M414.1,362.64h-.04s.07.04.11.06l-.06-.07h0Z" style="fill: #26573c;"/>
    <path d="M414.06,362.65c-.25-.14-.5-.15-.75-.09,0,.14.34.14.51.21-.04-.06.16-.11.24-.12Z" style="fill: #26573c;"/>
    <path d="M405.02,349.48l2.4,3.94.39-.16v.16c0,1.08.87,1.96,1.95,1.96h6.19c1.28.31,2.87.9,3.4.92.84.39,1.89-.09,2.94.1,1.68.1.84.46,1.68.73,1.05.2-.21-.36.21-.38l1.26.44c-.73.04-.34.22-.2.35,1.09.05,2.81.63,3.14,0,1.47.3,1.47.55,2.1.58-.21-.11-.63-.22-.63-.34.59.28.28-.07.04-.13.9-.27,4.66,1.14,4.85.46v.12c.21-.51-.12-1,.5-1.28l.42.23.63-.22c.42.17.21.3.21.36,1.03-.23,2.46.05,3.7.12l-1.31-1.39c1.05.32,2.94.98,3.15.53l.63.47c2.1.89,1.47-.38,2.31-.11l1.06.51h-1.05c1.05.25,1.47.42,2.31.75h0c-.06-.03-.09-.06-.1-.09h.15c.13-.27.68-.44,1.42-.42.53.04.99-.04,1.54-.05.27,0,.57,0,.9.04.16.02.34.05.52.09l.14.03c.07.01.14.03.21.04.15.03.3.06.46.09.19-.17.37-.35.54-.52.6.1,1.24.23,1.87.26l.17.4c-.45.06-1.03.06-1.67.07-.32,0-.66.01-1,.02-.29,0-.59.02-.89.03-.93.04-1.91.08-2.7.09l-.03.19c.94,0,2.01-.18,2.63-.14.17.04.35.17.69.32.2.12.32.25.15.36.24-.1.48-.2.71-.3.65-.01,1.22,0,1.72-.03.5-.02.91-.1,1.27-.18.7-.16,1.23-.34,1.76-.66.53-.3,1.03-.71,1.52-1.32.49-.64.88-1.34,1.17-2.65l-.26.37c.04-1.09-.16-2.2.2-2.45.01-.42.02-.85.04-1.27.02-.25.04-.5.05-.75.04-.49.1-.97.17-1.42.14-.92.34-1.74.6-2.38l-.49-.28c.03-.42.76-1.04.08-1.24l-.21-.89c.04-.57-.24-.92.04-1.56h0s.04-.08.06-.13h-.04c.22-1.29-.44.01-.15-1.46.35-.47-.62-.52-.51-1.24l.7-.72c.4-1.3-.3-1.52-.3-3.41.25-.9.85-1.34,1.38-.74-.64-.82-.42-.38-.72-1.47.26-.17.32-.05.56.19.31-.97-.24-.6-.22-1.33-.5-.21-1.29-.46-1.32-.7l-.16.28c-.26-.78-.39-1.62-.14-2.52l.25.03-.12-.96.32-.06-.1-1.37-.09.19c-.04-.32-.15-1.38.02-1.98l.18.02c.56-1.7-.17-3.11-.22-5.1l.36.26c.36-.68-.56-.19-.38-1l.44-.04c-.58-.71.13-.92.35-1.41l-.58.23.12-.92c.19-1.02.74-.62,1.04-.47l-.46-.69.51-.13c-.6-.51.1-.51-.22-1.4.19-.07.31.15.39-.15l-.72-1.47.32.88-.75-.11c-.28-.46-.26-.77-.2-1.05.03-.14.08-.27.1-.41.02-.14.02-.25-.03-.57.04.11.07.29.11.35l.11.23c-.01-.07-.02-.13-.03-.19v-.09s-.01-.1-.02-.14v-.49c0-.29.04-.51.08-.71.08-.4.2-.72.28-1.29-.14.38-.35.92-.45.2-.05-.53.26-.38.31-.93-.27.04-.47-.25-.66-.63-.18-.4-.31-.87-.42-1.4.07-.03.13-.05.2-.01-.19-.19-.34-.24-.5-.71.19-.04.4-.08.6-.11-.31-.16-.63-.3-.97-.41-.3-.6-1.32-.78-1.01-1.02.12.04.24.07.36.11-.64-.5-1.31-.79-2.05-.99-.75-.22-1.64-.27-2.53-.28v-.45c-.32.31-1.04.25-1.7.21-.11,0-.21-.01-.3-.02-.08,0-.15,0-.21.02-.12.04-.18.13-.16.32-.57-.42-2.24.29-1.9-.57-1.98-.07-3.05.76-5.45.33-.85-.73-3.2-.5-4.75-.58-3.02.3-4.97.57-8.05.8-1.85-1.02-4.63.34-6.62-.24l-.55.4c-1.33-.65-3.35.14-5.21-.49-.46.18-.7.23-.8.25.08.02.21.1.25.35-.53-.18-1.61.04-1.53-.47l.14-.05c.08-.51-1.61.24-2.21-.21l.32.55-1.01-.09.27-.11c-.27.08-.54.14-.79.19-.13.03-.25.05-.38.07l-.18.03h-.1l-.15.03c-.82.07-1.57.11-2.29.12s-1.38.1-1.96.23c-.58.12-1.12.3-1.65.61-1.05.6-1.9,1.63-2.2,2.8-.17.59-.28,1.3-.22,2.1.06.8.15,1.63.29,2.48-.15-.23-.21-.26-.21-.18,0,.09.03.32.06.42.07.28.14.63-.19.66-.83,1.03.18,1.92.39,2.77.03,0,.07.01.12.06l-.03.53s-.07.05-.08.08c.02-.02.06-.04.08-.06l-.05.93c-.83-.89.69,1.07-.02.25-.63,3.87,0,8.92-.3,13.4l.21-.2c-.04,1.14.21,2.55-.13,3.41-.34.86.54,1.89.57,2.22.37.95-.37,1.8-.33,1.4.1,1.01.86,1.96.53,3.36-.71.48.69,3.83-.11,3.87l.07.02c-.56,1.79.39,3.49-.12,5.42,0,0-.06-.04-.11-.1l.02.05Z" style="fill: #26573c;"/>
  </g>
  <g>
    <polygon points="378.97 424.3 378.64 424.44 379.11 425.1 378.97 424.3" style="fill: #ba4b2f;"/>
    <path d="M380.43,431.8c.41.42.84.82,1.3.63-.32-.2-.59-.44-.87-.67-.04-.03-.08-.06-.12-.09.45-.34.13-.97-.21-1.53.07.23.16.45.26.67-.13-.15-.41.07-.54-.09-.05-.57-.23-.88-.4-1.2-.15-.31-.31-.63-.12-1.2l.06.05-.47-.74c.04-.27.3-.21.4-.14-.2-.33-.39-.63-.55-.97-.13-.34-.22-.73-.24-1.23-.44.42-.26.98.02,1.5.27.53.54,1.02.14,1.5l-.06-.05c.23.45.34.97.4,1.5.07.53.11,1.09.42,1.51.19.15.38.36.58.57v-.02Z" style="fill: #ba4b2f;"/>
    <path d="M379.73,427.48l.03.06s0-.03-.03-.06Z" style="fill: #ba4b2f;"/>
    <path d="M410.48,443.74l-.03-.15c-.03.08-.06.15.03.15Z" style="fill: #ba4b2f;"/>
    <path d="M398.29,444.23l.05.03c.09-.2.05-.15-.05-.03Z" style="fill: #ba4b2f;"/>
    <path d="M390.42,404.38l-.32-.09c.15.15.25.16.32.09Z" style="fill: #ba4b2f;"/>
    <path d="M380.02,431.77s.02.05.03.07c.05.16.12.29.23.4-.05-.12-.12-.26-.21-.4-.02-.02-.03-.05-.04-.07h-.01Z" style="fill: #ba4b2f;"/>
    <path d="M422.39,422.16c-.23-.16-.29-.46-.41-.78-.05-.12-.1-.25-.15-.37-.09-.19-.21-.38-.39-.52.16.02.37-.13.51-.03-.16-.54-.43-1.08-.28-1.45l.21.14c-.1-.61-.26-1.33-.46-1.96-.25-.62-.55-1.13-.83-1.36-.19-.37.13-.5.31-.7-.28-.66-.68-1-1.21-1.38,0-.18,0-.36.08-.6h-.55c-.1-.28.3-.25.28-.51-.54-.33-.86-.83-1.13-1.32-.3-.47-.52-.96-.77-1.26l-.12.24c-.33-.14-.47-.84-.05-.69-.41-.67-.96-.97-1.53-1.29-.59-.31-1.28-.58-2-1.31.16-.42-.27-.65-.67-.89-.41-.23-.8-.48-.68-.96-.89-.25-1.2-.87-2-.69.03-.09-.02-.17.11-.11-.15-.47-1.34-.74-2.24-.85l.06-.29c-.41.37-1.3.05-1.91.13-.18.02-.34.08-.45.2-.05-.15.23-.22.38-.29-.27-.69-.84.08-1.36-.18.08-.14-.05-.35.1-.44-.22-.14-.46-.26-.71-.35-.26-.09-.54-.13-.83-.17-.29-.04-.59-.06-.9-.08s-.62-.03-.94,0c-.64.05-1.29.09-1.94.12-.65.07-1.29.1-1.94.02-.7.05.32.61-.58.7-.3-.27.36-.71-.24-.75-.37.46-.52.4-1.09.46.06-.22-.06-.34.32-.55-.19-.1-.52.08-.89.24-.36.19-.76.36-1.15.19.08.18,0,.32-.09.46-.19.2-.43.3-.68.34-.25.06-.5.08-.74.08-.47,0-.86-.07-.85.09,0,0-.28.2.02.16-.15.05-.34.09-.5.11-.2.01-.36-.02-.39-.19-.1.24-.13.55-.37.7l-.02-.4c-.11.14-.18.43-.3.54l.32.09c-.5-.09-.86.91-1.17.29l.12-.08c-.28.01-.54.07-.82.11-.12.41-.23.8-.7.99-.59-.52-1.15.63-1.71.96l-.13-.21c-.21.56-1.24,1.34-.99,1.27-.36.34-.97.67-.95.34-.21.37-.76,1.03-.59,1.46l-1,.22c.18.47-.1.75-.37.99s-.5.44-.12.73c-.38.28-.5.07-.82.24.07.8-.32,1.3-.72,1.83l-.1-.03c-.37.55-.25,1.46-.58,2.29l-.74-.09c-.07.5.42.8.13,1.17-.14.06-.14-.04-.14-.17,0,.47-.4.97-.63,1.27.34.81.02,1.27.45,1.96-.35.2-.4,0-.42-.22-.02-.21-.02-.44-.37-.28-.29.45-.32.96-.32,1.48,0,.05.01.1.01.16.03.47.09.96.23,1.45-.14.08-.25-.04-.4-.1,0,0,.41.59.92,1.08.44.44.96.79,1.31.74.04,2.6.59,5.07,1.52,7.34,1.13,2.74,2.82,5.18,4.95,7.16-.01,0-.02,0-.04-.01-.19-.05-.39-.1-.59-.19-.19-.09-.38-.21-.56-.37h.23l-.65-.74h.08c-.26-.11-.54-.23-.78-.38l.21-.14c-.17-.1-.31-.04-.5-.23l.29-.13c-.26.05-.59-.08-.9-.27s-.57-.44-.69-.65l.07-.15c-.37-.2-.74-.41-1.12-.62-.03-.67,1.03.27.21-.61l.7-.06c-.33-.28-.4-.51-.47-.7s-.11-.36-.33-.56c-.17.37.04.7-.34.57.17-.46.02-.66-.25-.82-.28-.16-.65-.27-.9-.52.13.3.2.52.64.56.14.31-.25.25-.18.45l.54.28-.32.32.68.59c-.47.2.35.69-.28.68.5.39.38.88,1.09,1.06-.04.51-.64-.33-.46.06,1.68,1.75,3.26,3.56,5.13,5.2l-.33.04c.34-.04.7,0,.94-.03.06.27.32.8.74,1.14.41.34.93.58,1.36.39.05.08-.11.11-.19.13.37.19.84.52,1.37.89.26.18.53.37.81.54.09.05.19.09.29.14.19.09.39.16.58.22.37-.29.75-.03,1.14.2.39.22.81.36,1.16-.11l-.29.16c-.3-.39.74-.6.94-.82.16.77-.1.53.14,1.27l-.4-.35-.03.6c.9-.53,1.53-.31,2.13,0,.3.15.58.32.86.38.28.04.54-.02.79-.28-.06.05-.05.15-.12.2.62.36,1.08-.37,1.52-.56.06.29-.26.47-.51.68.55.16,1.3-.06,2.03-.21.74-.13,1.47-.37,2.11-.23.35-.46-.25-.49.13-.86.37.05.7.31.29.59.29.15.65.13,1.03.01.39-.1.81-.28,1.24-.47.09-.04.18-.08.26-.13.34-.16.68-.35,1.02-.48.43-.18.88-.26,1.3-.3.57-.77.02-.71,1.01-1.53-.13.38.74.71.06,1.08l.06.31c.61-.24,1.28-.62,1.83-1.05.27-.22.52-.44.68-.69.16-.26.26-.53.27-.81.42.49.26-.04.86-.07.11-.18-.08-.06-.16-.05.03-.71.58-.41.77-.72v.17l.39-.92c.17-.04.42-.11.58,0l-.32-.32c.35-.35.6.26.93-.29l-.33-.13c.41-.15.48-.93.9-.67.08.05,0,.08-.08.2.46,0,.69-.35.88-.73.17-.4.31-.84.66-1.06l-.7-.27c.24-.71.38-.27.57-.11.14-.2.28-.29.43-.39.15-.11.31-.23.51-.49,0-.37-.14-.28-.27-.48l.49-.48.12.57c-.1-.36-.06-.66.04-.94.1-.29.23-.56.38-.82.11-.21.22-.41.3-.6.12-.3.15-.6-.05-.9.32-.28.29.48.48.32.42-.49.49-1.2.54-1.86.03-.67,0-1.31.39-1.73.11-.19.21-.38.29-.58.07-.2.12-.41.17-.63.09-.43.15-.88.2-1.33.04-.45.02-.92.06-1.38.01-.46.11-.92.15-1.38l-.19.04.07-1.31v.02ZM387.15,439.97c-.03-.08.02-.17,0-.25l-.31.02c-.02-.24.27-.23.49-.28.11.09.21.18.32.27-.09.16-.15.5-.48.24h-.02ZM388.43,441.85c.08-.18-.65-.48.28-.47-.79-.27-.7-1.01-.8-1.44.93.72,1.92,1.36,2.96,1.92-.67.19-1.83-.64-2.45,0h.01ZM391.11,441.98c.13.07.26.13.39.19h0c-.17.02-.31-.01-.39-.19ZM396.3,443.88c-.59-.03-1.22-.04-1.95-.58-.79.08-1.69-.09-2.37-.12-.11,0-.23-.01-.32,0,.05-.09.1-.18.16-.27.1-.16.19-.31.31-.45,1.47.65,3.04,1.13,4.67,1.41h-.5ZM399.07,445c-.64-.49-.64.46-1.41-.21.2-.02.49-.37.63-.56-.18-.09-.34-.16-.5-.21.32.04.63.07.95.09l-.14.13c.22.42,1.08.31.46.75h.01ZM399.06,444.26l.02-.12c.19.01.37.02.56.03-.11.11-.27.17-.58.1h0ZM400.27,444.21s-.02-.03-.03-.04h.27c.45,0,.89-.03,1.32-.06-.43.2-.92.32-1.56.1ZM411.13,441.24c-.07-.06-.12-.11-.16-.16.06-.04.11-.08.17-.11,0,.09,0,.18-.02.27h0ZM414.9,438.23c.04-.2.03-.31,0-.38.16-.17.32-.34.48-.52.04.08.06.16.05.24-.15.21-.29.51-.52.66h-.01ZM418.27,433.04c.04-.08.08-.16.12-.25.04.12.1.23.18.35-.14.07-.23,0-.3-.1Z" style="fill: #ba4b2f;"/>
    <path d="M257.35,499.23l-1.11,1.16c-.42.44-1.02.69-1.62.69-.35,0-.71-.09-1.04-.25-.9-.48-1.37-1.46-1.18-2.45.26-1.32.79-2.14,1.33-2.67-.33-.32-.59-.7-.71-1.1-.16-.51-.14-1.06.07-1.55.21-.51.4-1.13.56-1.81-.84-.4-1.37-1.3-1.27-2.26l.48-4.49c.06-.59.32-1.1.72-1.46v-.21c.02-.14.04-.32.07-.51-.16-.39-.21-.81-.14-1.23l.54-3.19c-.38-.52-.84-1.46-.77-2.04l.39-3.08c.05-.34.19-.64.38-.9-.06-1.67.3-3.15.61-4.4.21-.88.37-1.56.41-2.17-.51-.35-.88-.89-.98-1.55-.18-1.27.12-2.14.53-2.72l.05-.19c-.26-.46-.37-1.02-.25-1.59.02-.05.02-.11.04-.16l.17-.6c-.72-.34-1.23-1.05-1.28-1.89l-.07-1.12c-.75-.48-1.18-1.38-1.01-2.32l.44-2.29c-.33-.41-.53-.91-.51-1.45.02-.88.55-1.66,1.34-2.01l.14-.06c.21-.58.44-1.53.6-2.21.36-1.49.78-3.15,1.49-4.43l.12-1.3v-.05c-.66-.44-1.02-1.11-1.23-1.87-.12-.12-.23-.26-.32-.42-.23.14-.46.26-.72.3-.25.05-.76.02-1-.02-.26.21-.56.37-.88.46-.11.09-.21.16-.33.21-.65.28-1.34.28-1.92,0-.19.23-.41.41-.65.53-.14.19-.3.37-.48.51-.53.42-1.2.58-1.87.42-.48.28-1,.42-1.52.33-1.41.46-2.73.18-3.75-.09-.33-.07-.88-.19-1.15-.19h-.02c-.05.11-.12.19-.21.28-.55.6-1.36.83-2.12.78-.37.33-.83.55-1.32.58-1.22.86-2.5.74-3.17.69-.62.42-1.48.46-2.19.19-.39.21-.85.26-1.25.28-.19-.02-.37-.05-.55-.09-.21.12-.44.21-.67.26l-.13.03c-.38.26-.83.39-1.28.39-.3,0-.6-.05-.88-.18-.02-.01-.04-.02-.07-.04-.73.71-1.79.81-2.28.85-.46.09-.9.05-1.32-.11-.21-.02-.42-.05-.67-.12-.16,0-.32.04-.48.04-.26,0-.51.02-.76.02-.14,0-.28-.02-.41-.04-.41-.07-.76-.25-1.06-.51-.21,0-.4,0-.59-.03-.34.22-.74.35-1.16.37h-.05c-.27,0-.53-.05-.77-.14-.1.04-.21.08-.31.11-.29.11-.61.17-.94.17-.14,0-.28-.02-.43-.03-1.2,1.4-2.86,1.02-3.68.79-.23.19-.48.33-.78.44-.79.25-1.5.37-2.12.37h-.02c-.67.46-1.57.51-2.34.09-.25-.14-.65-.12-1.36-.04-.27.02-.52.03-.78.04-.19.05-.39.08-.58.08h-.08c-.13,1.84-.17,3.68-.02,5.25l.96,9.93c.48,4.9-.5,7.64.25,15.31l.8,8.17c2.91-1.86,3.41-4.81,3.41-4.81l2.51,5.08-5.94,4.43-1.38,13.19c-.5,4.8,3.59,8.39,8.13,8.43,1.8,1.13,1.01,2.84,2.74,2.92,2.71-1.89,1.66-.38,1.66-.38,3.74,4.8,9.8-.04,18.32,2.02l3.94-2.55c2.48,1,13.63,1.49,17.65,1.79.08-.92.18-1.86.29-2.81-.76-.38-1.27-1.18-1.24-2.08v-.16c-.53-.49-.99-1.34-.72-2.66.25-1.2,1.5-1.99,2.52-1.8l.12.02c.13-1.75.2-3.47.14-5.13h-.07.04ZM220.76,510.08c-.49-.19-1.2-1.45-.72-1.67l3.38-1.62.41,4.49-3.07-1.19h0ZM225.21,511.52l-.36-4.54,3.1,3.38c.37.41-2.7,1.76-2.75,1.16h0Z" style="fill: #ba4b2f;"/>
    <path d="M255.21,499.09c.51.23,1.02.16,1.36.02-.21-.07-.4-.16-.57-.27h-.66l-.12.26h0Z" style="fill: #ba4b2f;"/>
    <path d="M267.48,193.79l.16.04c.28-.12.67-.14.93-.18,1.08.04,2.12.3,3.12.55.07.02.14.04.21.05.41-1.02,1.55-1.62,2.61-1.41l5.32,1.2c.5-.91,1.62-1.37,2.63-1.1.05.02.09.04.14.05.11.04.25.09.37.14.02,0,.05,0,.07.02l.42.18c.16-.07.33-.11.51-.12,4.99-.6,9.55.12,14,.81,5.08.79,9.89,1.55,14.93.33.49-.44,1.11-.67,1.85-.49l.85.23c0-.09.02-.18.04-.26.03-.19-.04-.43-.19-.74-.16-.3-.37-.67-.53-1.16-.02-.02-.04-.04-.05-.05-.46-.33-.83-.78-.92-1.32-.04-.23.04-.97.09-1.22v-.05c-.25-.3-.42-.67-.48-1.06-.09-.12-.14-.26-.19-.41-.21-.58-.18-1.2.07-1.71-.02-.04-.04-.05-.07-.09-.21-.3-.35-.65-.41-1.02-.02-.05-.04-.11-.05-.16-.18-.14-.32-.3-.44-.48-.42-.62-.51-1.43-.23-2.12-.23-.42-.33-.88-.28-1.36-.51-1.57-.11-3.05.19-4.16.26-1,.32-1.37.23-1.6-.11-.07-.21-.18-.32-.28-.58-.62-.81-1.48-.56-2.26l-.05-.05c-.33-.42-.51-.95-.51-1.46-.81-1.32-.63-2.61-.53-3.38.04-.28.07-.62.04-.69-.32-.6-.33-1.27-.12-1.87-.19-.41-.28-.86-.23-1.32.04-.23.09-.46.16-.65-.14-.25-.25-.51-.28-.79l-.04-.24c-.38-.63-.44-1.41-.12-2.1.04-.09.1-.18.15-.27-.8-.8-.84-2-.84-2.59-.05-.41.02-.81.16-1.18.02-.28.07-.56.19-.88-.02-.14-.04-.28-.04-.44s.02-.32.05-.48c-.05-.32-.04-.67.05-.99.11-.37.3-.69.55-.93,0-.4.07-.76.16-1.08-.14-.29-.22-.6-.21-.93,0-.26.04-.51.12-.75-.11-.2-.19-.4-.23-.62-.16-.46-.16-1.01-.04-1.53,0-.04,0-.08.02-.12-.02-.02-.04-.04-.05-.05-1.39-1.36-.85-3.08-.6-3.91.02-.05.04-.11.05-.16-.23-.26-.41-.55-.49-.88-.19-.88-.28-1.66-.21-2.38-.44-.69-.48-1.6-.04-2.34.02-.03.03-.07.04-.11l-6.55.27c-4.01.17-7.26,1.3-11.14.27l-9.84-2.61-9.28.63s-2.58-3.06-3.04-2.68c-10.17,8.49-18.66,1.88-31.56,6.72-2.45-1.72-7.24-4.56-10.11-.61l-3.84,7.77-11.36-5.67s-1.35,3.03-1.38,3.69c1.17,2.22,1.63,4.31.84,5.18-.75.82-1.6,1.54-1.46,1.93s.78,1.55.82,1.96l1.05,12.08-2.03,8.86c4.4,3.81,4.5,8.74,3.72,13.82l-3.09,5.55-3.96,3.46c-.27.24-.26.87-.11,1.59.48-.29,1.09-.51,1.92-.68.26-.07.56-.05.86-.02,2.06.37,3.67-.42,5.32-1.3,1.2-.63,2.43-1.3,3.84-1.36,1.2.05,2.68.12,3.51,1,.11-.02.21-.05.33-.07.11-.18.25-.37.42-.51.67-.67,1.75-.83,2.57-.35.42-.3,1.02-.53,1.89-.6,4.3.48,6.54.16,8.88-.18,1.48-.21,2.98-.41,4.9-.46.53-.62,1.25-.88,2.17-.71.58-.35.71-.41,3.33-.11,1.53.18,3.7.44,5.83.56.55-.71,1.5-1.15,2.4-.79l1.27.33c.12-.12.26-.25.42-.35.9-.56,2.03-.41,2.79.32.42.18,2.41.18,3.81.14.86,0,1.73.02,2.59,0,.05-.07.12-.12.21-.19.53-.46,1.23-.63,1.92-.48v-.02ZM221.17,170.77c-.49.2-1.69-.66-1.26-.96l3.09-2.15c.18.18,1.72,1.71,1.67,1.66l-3.51,1.45h0ZM228.01,142.88l3.06-1.75c.79-.45,2.43.66,3.4,1.73l-6.47.02h.01Z" style="fill: #ba4b2f;"/>
    <path d="M257.66,269.2c-.18.04-.37.06-.56.06-.33,0-.69-.07-.99-.19-.27-.07-.51-.21-.73-.38h-.06c-.07.17-.15.34-.26.5-.42.58-1.11.93-1.83.93-.07,0-.14,0-.21-.02-.77-.07-1.32-.4-1.72-.76,0,0-.02,0-.03.01-.36.81-1.15,1.33-2.05,1.33h-.14c-.16-.01-.31-.04-.47-.07-.05.2-.11.38-.24.52-.46.48-1.25.81-1.94.81-.07,0-.15,0-.22-.01-.33.04-.68.05-.98.05-.11.16-.23.3-.35.41-.11.09-.21.16-.32.22-.04.07-.06.15-.11.22-.33.51-.85.88-1.45,1-.23.05-.56.09-.9.09-.44,0-.88-.05-1.15-.19,0,0,0-.01-.02-.01-.1.19-.23.38-.39.54-.42.44-1.02.67-1.6.67-.18,0-.36-.02-.54-.07-.32.23-.69.37-1.09.37-.12,0-.26-.02-.41-.05l-.79-.18c-.09-.02-.17-.05-.26-.08-.22.07-.46.12-.7.12-.21,0-.42-.04-.63-.09l-.55-.16s-.06-.03-.09-.04c-.05.15-.1.3-.17.46-.38.72-1.09,1.12-1.84,1.17-.08.03-.15.06-.24.08-.19.05-.37.07-.55.07-.46,0-.89-.14-1.25-.39-.11.12-.24.24-.39.34-.09.05-.18.11-.28.14-.46.37-1.11.56-1.71.48-.28-.04-.65-.14-1.04-.39-.29.22-.53.4-.86.53-.32.17-.67.26-1.03.26-.06,0-.12-.02-.18-.02l-.69.54c-.6.46-1.36.58-2.08.37-.04,0-.09-.02-.12-.02-.46.23-1,.39-1.73.26-.55-.11-1.29-.42-1.89-1.32-.34.06-.64.03-.92-.03-.33.29-.74.48-1.21.54-.09,0-.18.02-.26.02-.31,0-.6-.07-.88-.18-.09.06-.18.13-.29.18-.12.05-.26.11-.41.14-.21.12-.42.21-.65.26-.53.56-.95.97-1.52,1.25-.44.21-.86.26-1.34.19-.23.02-.46.04-.69-.02-.25-.07-.58-.19-.92-.42-.16-.02-.32-.05-.46-.09-.04.04-.09.05-.12.07-.28.67-.88,1.16-1.62,1.32-.33.14-.67.23-.97.23-.3-.02-.72-.11-1.04-.23-.41-.03-.77-.14-1.1-.29-.45.36-1.2.71-1.76.71h-.03c.29,2.21.32,5.22-.38,6.79.56,1.45,1.68,3.85,1.28,4.89-.37.96-2.14,2.9-1.66,3.71l1.71,2.93-1.4,19.29c-.48,4.95.14,9.22,1.95,13.63-1.08,4.02-1.15,8.13-.15,12.36-1.08,8.67-1.5,17.4-1.1,25.93,1.61.3,2.71.61,2.28.94l-2.58,1.9c1.88,3.82,1.14,8.17,1.28,12.23.3,8.44.06,15.58-1.3,23.97-1.02,6.31,1.95,15.01,2.39,24.04.24-.02.48,0,.72.06.44-.32,1.01-.48,1.66-.41l.95.14c.18.03.35.08.51.15.44-.19.92-.25,1.34-.15l.67.14c.16.03.3.09.45.15.17-.08.34-.15.52-.2.02-.07.03-.15.07-.23.35-.86,1.17-1.39,2.06-1.39.1-.04.21-.08.32-.1.75-.17,1.57.1,2.11.65.14-.25.32-.48.57-.67.16-.12.35-.23.53-.3.44-.32,1-.55,1.55-.42.32.02.76.11,1.18.37.14-.02.32,0,.42-.02.36-.22.7-.41,1.04-.56.46-.27,1-.38,1.56-.25.02-.02.05-.04.07-.05l1.06-.69c.56-.35,1.23-.49,1.8-.3.16,0,.32.04.48.07.56-.3,1.25-.49,2.06-.35.55.12,1.29.44,1.89,1.32.54-.19,1.09-.16,1.62-.03.03-.01.06-.03.09-.04.35-.33.81-.56,1.34-.62.5-.16,1-.04,1.42.25.14-.12.28-.22.47-.32.12-.07.28-.12.44-.16.33-.21.69-.33,1.06-.35.09-.07.18-.16.25-.23.44-.37.97-.83,1.67-1.09.37-.16.71-.23,1.11-.14.23-.07.46-.09.63-.02.28.05.63.21.97.41.39.02.74.02,1.11.12.19-.12.41-.23.63-.33.33-.65.97-1.11,1.71-1.22.35-.14.71-.16,1.02-.21.33,0,.62.07.88.19.67-.18,1.29.14,1.76.35h.02c.08-.07.15-.14.24-.21.45-.35,1.08-.5,1.69-.52.06-.05.11-.11.17-.15.13-.08.28-.14.45-.2,0,0,0-.02,0-.03.49-.81,1.56-1.21,2.37-1.09.25-.1.51-.16.77-.18-.02-.09-.04-.19-.05-.28-.18-.99.3-1.92,1.13-2.38-.85-.37-1.39-1.13-1.25-2.08.3-2.01-.02-4.85-.26-7.12-.15-1.31-.28-2.5-.31-3.49-.08-.33-.1-.67-.03-1.02l.09-.42c.07-.33.21-.63.39-.89.31-.94.57-2.27.61-3.02-.23-.39-.34-.76-.4-.95-.18-.63-.07-1.3.27-1.84-.55-.29-.96-.77-1.03-1.42l-.69-5.98c-.07-.6.11-1.16.42-1.6-.18-.42-.25-.88-.16-1.34.11-.56.41-1.06.85-1.39.05-.74-.18-2.26-.32-3.31-.51-3.56-1.09-7.62,1.39-9.94.55-.51,1.3-.67,1.94-.58v-.44c-.02-1.89-.05-3.83.05-5.71-.44-.35-.74-.88-.83-1.45-.35-2.6.21-5.33.98-8.02-.91-1.27-.7-2.87-.58-3.82.12-.86.18-1.45-.02-1.69-.48-.58-.63-1.36-.42-2.08.23-.71.78-1.27,1.48-1.5.06-.02.13-.02.2-.04-.18-.74-.22-1.71-.04-3.26.02-.12.04-.25.07-.37-.71-.74-.85-1.75-.9-2.17-.05-.44.02-.88.21-1.29.49-1,.51-1.34.51-1.36-.71-.97-1.3-2.08-1.16-4.25-.26-.46-.35-.99-.23-1.53.51-2.49.02-5.76-.44-8.95-.3-2.08-.6-4.12-.67-6.03-.02-.53.14-1.02.44-1.43-.26-.44-.37-.97-.3-1.48.18-1.22.42-2.89,1.46-3.79-.6-2.64.18-7.37,1.34-10.21-1.18-2.31-1.15-5.38-1.11-7.91,0-.87.02-2.09-.07-2.73-.29-.21-.55-.47-.71-.81-.3-.59-.3-1.29-.04-1.89,0-.04-.02-.08-.03-.12-.55-2.63.05-4.23.72-5.29-.07-.19-.11-.41-.12-.62-.18-3.14.56-5.55,1.22-7.7.48-1.52.9-2.91.97-4.46-1.01-.87-.98-2.21-.44-4.01l.08-.05Z" style="fill: #ba4b2f;"/>
    <path d="M210.51,251.12c.46.25,2.62,6.92,2.86,14.58l-.32.17c.82-.25,1.57-.14,1.97-.12.6-.46,1.25-.56,1.94-.32.26-.09.53-.14.92-.07.07.02.16.04.23.05.11-.06.23-.09.35-.13.57-.45,1.32-.61,2.02-.36.72-.56,1.61-.62,1.98-.64.48-.11,1.02-.04,1.46.19.12.02.23.05.32.09h.53c.19-.04.39-.05.63,0,.48.07.92.28,1.25.6h0c.26-.15.54-.25.85-.28.29-.04.58-.01.84.05.37-.23.81-.37,1.27-.24.57-.62,1.51-1.06,3.07-.65.16-.11.33-.19.51-.26.67-.25,1.27-.35,1.82-.37.72-.42,1.71-.49,2.47.07.11.05.51,0,.74-.02.3-.03.51-.11.85-.07.06,0,.11-.01.17-.02.37-.33.84-.53,1.34-.59.12-.05.25-.12.41-.18.3-.21.67-.35,1.06-.39.51,0,1.09,0,1.71.07.46.02,1.32.09,1.57-.02.58-.42,1.32-.49,1.97-.33.07-.04.12-.07.18-.09.07-.04.12-.07.19-.09.11-.07.23-.11.35-.16.09-.02.16-.05.25-.07.18-.04.3-.07.53-.05.23,0,.46.04.67.09.44.02.86.16,1.22.42.16-.04.32-.07.46-.11.44-.09.72-.16.85-.25.46-.44,1.13-.72,1.73-.58.39.04.74.16,1.06.37.5-.2,1.15-.22,1.89.08.3-.23.66-.39,1.04-.46-.04-.11-.09-.2-.13-.33-.09-.25-.11-.49-.11-.76.01-.25.05-.46.09-.68-.22-.31-.37-.69-.4-1.1-.07-.78-.07-1.4.02-2-.02-.59-.08-1.13-.15-1.62-.08-.7-.16-1.46-.11-2.22-.24-.26-.42-.57-.51-.92-.21-.74.04-1.94.53-2.5.07-.09.17-.18.27-.27.11-.55.09-1.32.05-2.04l-.16-.16c-.76-.9-.71-2.24.14-3.07.93-.92.88-1.32.55-3.16-.11-.56-.23-1.16-.3-1.85-.71-.56-1-1.48-.78-2.34l.26-.9c.21-.67.42-1.39.55-2.15-.02-.02-.05-.04-.07-.05-1-.51-1.46-1.69-1.08-2.75.19-.58.19-1.83.18-2.93v-.76c0-.71.02-1.57.16-2.43-1-1.06-.9-2.73-.85-3.6.02-.25.07-.48.16-.69-.19-.28-.33-.62-.39-.97-.16-1.16-.12-1.99.04-2.66-.65-.55-.95-1.41-.76-2.24l1.16-4.88c-.25.15-.52.26-.83.3-.93.16-1.59.25-2.12.25s-.95-.09-1.45-.33c-.05-.04-.32-.12-1.29-.23-.21-.02-.41-.08-.61-.16-.11.06-.22.12-.35.17-.44.21-.93.24-1.39.19-.27.19-.58.32-.93.38-.44.07-.83.11-1.22.11-.18,0-.35-.03-.52-.04-.53.04-1.02.14-1.43.2-.53.1-1.16.2-1.83.21-.23.23-.5.42-.81.53-.25.09-.53.14-.85.14-.58,0-1.2-.16-1.59-.42-.13-.09-.26-.22-.38-.36-.37-.04-.88,0-1.41.06-.07.09-.14.16-.23.25-.9.78-2.26.74-3.08-.09s-.95-.71-2.43-.28c-.44.12-.93.28-1.48.39-.51.78-1.43,1.13-2.36.93l-.83-.21c-.51-.14-1.02-.26-1.53-.35-.02.05-.04.11-.07.14-.49,1-1.62,1.57-2.71,1.13-.46-.12-1.52-.05-2.4.02-.83.05-1.75.09-2.57.09-.97,1.08-2.52,1.13-3.31,1.13-.16,0-.31-.02-.46-.05-.24.18-.5.33-.81.4-.67.18-1.16.23-1.57.26h-.14c-.16,0-.31-.02-.47-.05-.29,1.52-.84,3.32-1.57,5.79,1.19,3.85,2.18,7.35-.6,11.44l2.26.32c-2.93,4.11-3.83,8.44-1.77,12.03l-1.97,5.87,3.52,1.94v.02Z" style="fill: #ba4b2f;"/>
    <path d="M257.58,262.02c.03-.19.08-.36.15-.53-.2.08-.37.18-.52.29.12.07.24.15.36.24h.01Z" style="fill: #ba4b2f;"/>
    <path d="M317.78,455.45l-2.47-11.8c.07-1.59-.62-3.63-.84-5.79-.29.23-.6.42-.86.49-.14.04-.27.07-.4.08-.04.04-.08.08-.13.11-.37.28-.83.42-1.3.42-.16,0-.3-.02-.46-.05-.51-.11-1.46-.48-1.8-.88-.02-.03-.03-.06-.05-.09-.17.14-.37.26-.58.35-.28.11-.56.16-.85.16-.49,0-.97-.16-1.37-.47-.13.03-.26.04-.4.04-.37,0-.72-.11-1.04-.32l-.67-.46c-.13-.09-.25-.2-.36-.31-.42-.03-.82-.16-1.14-.43l-.44-.37-.09-.09h0c-.1.12-.21.24-.32.34-.65.52-1.47.62-2.18.36-.11,0-.21-.01-.33-.03-.63-.13-1.15-.52-1.47-1.04-.16.07-.33.13-.5.15-.11.02-.21.04-.32.04-.58.16-1.2.09-1.75-.26-.25-.14-.56-.39-.81-.78-.22.05-.46.09-.71.11-.14.03-.27.05-.42.05-.4,0-.78-.11-1.12-.31l-.87.22c-.78.16-1.53-.04-2.06-.55l-.02-.02c-.53,0-1.15-.05-1.73-.46-.48-.3-1.02-.9-1.22-1.94-.32-.09-.6-.24-.86-.43-.23.07-.45.11-.69.11s-.46-.04-.67-.11c-.39-.12-.72-.33-.98-.61-.15.03-.31.06-.45.07-.19,0-.37-.04-.62-.02-.14,0-.28-.02-.42-.05-1.25.48-2.26.72-3.17.18-.23-.05-.44-.14-.62-.28-.21-.18-.48-.42-.71-.78-.14-.07-.28-.16-.42-.26-.05,0-.11.02-.16.02-.56.48-1.37.65-2.03.53h-.02c-.35,0-.67-.07-.93-.18-.35-.18-.62-.37-.83-.62-.4-.18-.7-.45-.95-.72-.25.07-.56.12-.88.12-.36,0-.71-.06-.98-.18h-.03c-.42.33-.94.53-1.48.53-.26,0-.52-.06-.77-.16.16,1.82-.19,3.91-.52,5.78-.12.75-.29,1.76-.36,2.46l.43.53c.53.65.63,1.55.3,2.31-.17.39-.44.72-.78.96-.11.92-.13,1.89-.16,2.85,0,.6-.02,1.18-.05,1.75.18.14.32.3.44.48.33.51.46,1.11.35,1.71l-.07.3c.08.19.15.38.18.59.13.98.02,1.92-.28,2.72-.33,2.63-.47,4.97-.53,7.25.56.3,1,.81,1.18,1.46.62,2.4.19,5.24-.25,8.25-.26,1.87-.55,3.77-.6,5.64.46.55.65,1.3.46,2.03l-.18.63c.42.41.51.95.53,1.55.23,5.57.02,9.59-.71,12.41.69.49,1.06,1.27.83,2.15-.88,3.54-1,7.99-1.11,12.29-.05,1.71-.09,3.38-.18,5,.06.28.08.56.03.82l-.13.64c-.05.65-.11,1.29-.18,1.91,1.86-.58,4.66-1.3,3.15-2.06,7.79-.36,6.36.16,14.4,2.46l4.73-1.85,1.64-3.41,1.86-3.67,3.46,7.03c1.59-2.2,2.81-3.91,3.96-3.67,4.48.97,3.31,5.12,5.21,6.36.74.48,3.08-.04,3.73-.6.65-.56.49-2.03.53-2.83,1.49-.02,4.78-.54,5.54-1.38.82-4.87.81-12.2.6-17.31l-1.27-31.81c1.66.9,3.52-5.42,3.52-5.42l.05.06ZM301.76,477.21l-1.38-6.99c2.55,1.58,2.53,4.68,1.38,6.99Z" style="fill: #ba4b2f;"/>
    <path d="M545.81,199.64c4-.02,7.61.02,11.3-.55.55-.09,1.06,0,1.53.3.32.19.63.55.86.93.48.09.97.18,1.45.26,1.2.25,2.36.48,3.45.49.35-.39.81-.65,1.36-.74,3.63-.53,5.45.04,7.35.62,1.39.44,2.84.9,5.55,1.06.75.04,1.39.46,1.77,1.05.17-.27.39-.5.66-.67.18-1.16,1.1-2.28,2.21-1.91.02,0,.09,0,.18.02l.39.07h.02l2.77.42c1,.16,1.77.96,1.9,1.94.47-.02.94-.03,1.4-.03-.83-.79-1.77-1.52-2.64-2.24.51-.64,1.8-2.03,1.43-2.62l-1.4-2.2.66-6.25s-.89-2.25-.67-3.33l.86-4.19-1.23-3.15c1.84-.02,3.94-.32,5.26-1.03,1.1-.59-.59-4.7-.59-4.7l1.99-2.85c.47-.67-.8-2.43-.91-3.24-.27-2.68-.89-5.19-1.77-7.49-1.49,1.67-1.82,2.04-1.82,2.04.02-.02,0-6.28,0-6.28-3.84,1-4.69-2.35-4.69-2.35.35.08.49-1.36.28-1.5-.66-.31,2.6-3.66,2.11-3.89l-5.52.48c-.43.28-1.89-1.07-1.58-1.48l1.67-2.2-1.68-6.1-14.74.78-8.33-1.19c-4.8-.69-9.22-1.52-13.14-3.51-1.5.94-3.92,1.66-6.17,1.69-6.84.08-13.65,1.52-20.06,1.04l-11.33-.84-15.1-.28-12.04-.21c.01.21,0,.42-.04.63,0,.02-.02.02-.02.04.16.32.23.65.23.99.09.26.14.58.14.9-.02,1.45-.11,3.08-.58,4.53.35.63.39,1.41.02,2.1-.58,1.11-.78,2.75-.97,4.32-.07.6-.16,1.2-.25,1.78.02.33-.03.67-.17.99l-.04.08c-.08.4-.19.84-.35,1.31.18.25.33.53.44.88.19.55.16,1.16-.11,1.69.11.74.18,1.5.09,2.24.11.3.12.62.09.93-.12.95-.33,2.06-.58,3.23-.46,2.31-.99,4.92-.76,7.03.07.6-.11,1.22-.49,1.67-.26.32-.58.55-.95.69,0,.02,0,.04-.02.05.18.21.3.48.37.74.39.48.71,1.13.63,2.01.02.12.02.25.02.37v.07c0,.11-.02.23-.05.33-.05.26-.14.56-.26.83.05.67-.21,1.34-.71,1.82l-.25.25c0,1.16-.09,2.29-.16,3.38-.12,1.66-.23,3.08,0,4.49.12.72-.11,1.45-.62,1.97-.16.14-.35.26-.55.39-.02.02-.02.04-.04.05-.05.16-.12.35-.19.55.14.19.25.42.28.69.37,2.19-.3,3.35-.81,4.21-.26.48-.5.88-.64,1.63.64.49,1,1.3.87,2.13.92.03,1.82.08,2.71.13.31-.07.62-.09.91,0l.53.13c1.95.18,3.57.42,4.97.79.55-.49,1.29-.99,2.31-1.25.6-.19,1.27-.05,1.82.3.42-.04,1.02-.12,1.5-.18,1.57-.23,3.42-.42,5.04-.3.04-.02.07-.02.11-.04.33-.18.67-.23,1.06-.23,2.15.09,4.64.28,7.28.51,5.66.49,12.09,1,17.43.41,1.13-.23,2.17.58,2.45,1.67.33.11,2.5.33,4.12.51.44-.67,1.18-1,2.06-1.02.86-.76,1.82-1.04,3.17-.95.23-.09.53-.07.76-.09.99,0,1.69.25,2.17.62.04-.02.07-.04.11-.05.67-.35,1.46-.32,2.13.09l1.73,1c3.19-.23,6.22-.23,9.1-.19l-.04-.02ZM569.69,180.77c.5-.47,2.85-1.04,3.12-.42l1.11,2.51c.36.82-2.08,1.92-3.87,2.27-1.18.23-1.24-3.53-.36-4.36ZM563.76,176.52c1.5-.68,4.06-1.04,5.32-.95l-.97.6-3.97,3.88c-.86.06-1.42-3.08-.39-3.54h0Z" style="fill: #ba4b2f;"/>
    <path d="M468.85,147.07l-.02.05s.03-.02.05-.02c0,0-.02-.02-.03-.02h0Z" style="fill: #ba4b2f;"/>
    <path d="M326.61,190.78c.13.37.19.75.15,1.11.14.16.26.33.35.51.12.07.23.16.33.26.23.23.42.51.53.79,3.24-.53,6.12-.26,8.94,0,2.61.26,5.04.51,7.91.12.85-.11,1.37.14,1.87.62.83.04,1.66.14,2.41.23.6.07,1.59.19,1.96.18.46-.56.97-1.02,1.96-.79,1.6.16,3.05.63,4.44,1.09.62.21,1.23.41,1.83.58.02-.04.04-.07.04-.11.37-.83,1.18-1.36,2.08-1.36h3.49c.46-.22.99-.3,1.5-.21,1.19.28,2.06.83,2.57,1.59.9.3,2.03.39,3.32.49.88.05,1.83.12,2.82.28,0-.14.02-.26.05-.39.51-2.2,2.77-2.06,6.75-1.94,1.52.09,2.29.04,2.93.51,2.12-.18,3.58.39,4.6.83.28.14.71.32.85.33.51-.49,1.25-.78,1.99-.67.49.09.99.28,1.34.63l1.09-.32c.63-.23,1.32-.11,1.89.26.35.23.63.55.81.92.51.05,1.18.04,2.01.25.28-.11.58-.18.86-.19,1.75-.19,3.79.18,5.64.53.63.13,1.46.3,2.07.38l.33-.31c.62-.58,1.5-.81,2.31-.48.46.16.83.48,1.09.88.8.11,1.63.14,2.5.16.49,0,.97.02,1.43.05.12-.16.26-.28.44-.41.49-.37,1.13-.51,1.76-.35l.12.03c.18-.08.36-.14.56-.17.99-.11,1.85,0,2.62.3,2.31.34,4.39.5,6.42.58.26-.56.76-.99,1.39-1.16,2.27-.63,4.92-.18,7.74.28,1.66.28,3.37.56,4.99.63.58-.48,1.36-.65,2.1-.44l.46.14c.39-.35.9-.48,1.45-.49,5.08-.16,8.71.04,11.32.74.53-.67,1.39-.97,2.2-.76,1.94.55,4.12.81,6.7.99.04-.12.09-.23.13-.34.06-.22.14-.43.24-.64-.33-.35-.55-.79-.6-1.28-.01-.11,0-.22,0-.32-.11-.06-.22-.14-.31-.22-.74-.63-.85-2.19-.46-3.07.05-.78.48-1.33,1.1-1.65.03-.14.07-.26.12-.38-.09-.22-.15-.45-.16-.69-.05-.97.05-1.69.28-2.27-.12-.41-.14-.85-.04-1.27l.11-.41c-.07-.05-.15-.1-.22-.16-.63-.53-.93-1.36-.76-2.17.33-1.69,1.16-2.38,1.9-2.91.07-.07.14-.12.22-.17-.11-.32-.18-.62-.19-.88-.3-.49-.42-1.08-.29-1.66.12-.52.32-.94.55-1.28-.16-.22-.3-.46-.38-.73-.02-.05-.04-.11-.04-.16-.21-.18-.37-.37-.51-.58-.28-.48-.39-1.04-.28-1.59.18-.95.58-1.9.97-2.82.18-.4.33-.8.48-1.2-.8-.24-1.42-.85-1.6-1.67-.13-.58-.18-1.43.22-2.24-.02-.13-.06-.25-.06-.38-.05-1.75.69-2.71,1.43-3.26-.28-.3-.48-.69-.56-1.09-1.01-1.09-.88-2.43-.73-3.19-.04-.04-.09-.08-.13-.13-.41-.44-.6-1.04-.56-1.64l.09-1.23c.02-.25.07-.48.16-.69.22-.52.64-.92,1.13-1.18.05-.14.1-.29.15-.46.13-.34.33-.64.59-.88-.42-.68-.58-1.54-.31-2.24.03-.08.07-.16.12-.24-.3-.1-.58-.25-.82-.47-.71-.65-.93-1.66-.56-2.54.11-.25.24-.48.39-.69-.06-.38-.02-.76.1-1.12-.31-.51-.43-1.14-.28-1.75l.46-1.78c.09-.34.26-.64.48-.89.02-.21.05-.42.13-.63l.17-.44c-.24-.51-.34-1.09-.18-1.59l.2-.64c-10.26-.17-20.04-.12-30.12,1-5.8-1.63-11.77-1.81-17.46.65l-23.44-1.85-10.94.47-10.53.6c-1.76.1-5.22-.65-6.86-.91l-18.38.68-26.41.52-3.69.15c.02.08.04.17.05.25.39.44.59.99.48,1.61l-.19,1.02c-.05.25-.14.48-.26.69.21.45.29.95.16,1.43l-.19.71c-.05.18-.12.34-.2.49,0,0,.02.02.03.04.13.25.21.56.24.87.01,0,.03.03.04.04.04.02.07.02.11.04.88.37,1.39,1.26,1.34,2.17.07.18.12.38.14.58.08.86-.34,1.67-1.03,2.11.35.16.66.42.89.76.14.21.25.44.3.67.28.44.41.95.33,1.48-.04.28-.14.76-.46,1.23.05.33.04.71-.07,1.08.16.16.29.34.41.52.41.56.54,1.29.31,1.99.06.08.13.16.17.25l.63,1.23c.26.55.32,1.13.16,1.67-.02.23-.05.44-.12.65.3.65.49,1.43.23,2.33-.16.53-.55,1.23-1.45,1.78.22.66.16,1.31-.03,1.9.03.09.06.18.08.27.33.41.55.93.55,1.5,0,.46-.15.89-.39,1.25.03.1.06.19.07.29.11.16.21.33.3.53.09.18.16.39.19.63.16.33.25.69.23,1.04.09.14.21.33.3.46.33.49.76,1.11.99,1.83.09.33.11.67.07.99.05.26.05.53-.02.78-.07.26-.25.62-.48.95v.02c0,.44-.07.88-.23,1.34.19.33.33.67.42.95.58.35.99.95,1.08,1.66.21.55.21,1.04.16,1.34-.04.3-.12.56-.23.79.02.76-.23,1.43-.49,1.9.02.07.02.16.04.24.11.12.23.23.32.38.27.47.38,1.15.33,1.79.05.07.11.12.15.19.1.18.17.41.22.66.05.03.11.06.17.1.7.56,1.01,1.52.79,2.38v.03Z" style="fill: #ba4b2f;"/>
    <path d="M542.8,215.93c-.48,2.01.28,3.58,1.09,5.22.6,1.23,1.22,2.5,1.2,3.93-.12,1.16-.26,2.63-1.18,3.4.02.09.02.16.04.23.23.14.42.32.6.53.56.72.65,1.69.21,2.49.28.42.48,1.02.51,1.87-.6,4.2-.39,6.28-.14,8.67.16,1.45.32,2.93.3,4.78.58.56.85,1.39.63,2.19.18.33.26.71.26,1.09,0,.3-.11,1.11-.28,2.2-.21,1.46-.51,3.53-.71,5.55.71.56,1.02,1.53.74,2.45l-.37,1.13c.16.16.3.33.41.55.49.92.28,2.06-.49,2.75-.1.22-.15,1.04-.18,1.95.61.37.96.86,1.17,1.34.05,0,.1.02.15.03.71-.66,1.72-.8,2.56-.38.14.07.26.16.39.25.15-.14.31-.27.49-.35.67-.34,1.65-.26,2.29.1.36.08.74.22,1.04.41.19-.12.39-.23.56-.26.1-.03.23-.04.36-.05.08-.07.15-.14.24-.2.51-.35,1.13-.44,1.71-.33.46.09,1.41.44,1.73.79.22.24.37.54.47.86.28.06.55.16.8.31.21-.61.66-1.12,1.29-1.37.68-.27,1.46-.18,2.07.23.55-.08,1.12.04,1.62.37l.69.48c.09.06.17.13.24.2.15,0,.3.03.44.08l1.3.37c.38.11.7.31.96.57h.06c.09-.12.17-.24.29-.34.64-.53,1.45-.65,2.17-.42.17,0,.35.02.53.07.6.14,1.08.53,1.38,1.03.18-.08.37-.15.57-.18.09-.02.16-.04.25-.04.6-.16,1.23-.09,1.78.23.26.16.6.41.86.81.38-.09.77-.15,1.17-.14.4-.01.79.08,1.15.27l.94-.22c.79-.25,1.5.04,2.04.49.07.04.12.09.18.12.83-.12,1.78-.14,2.63.53.44.32.93.9,1.11,1.85.35.08.65.25.93.44.45-.16.96-.2,1.43-.02.38.12.71.34.96.62.16-.03.33-.05.5-.1.21.02.42.04.62.02.16,0,.3.02.46.05.79-.32,1.39-.74,2.06-.55.44,0,.86.12,1.22.35.21.05.42.14.58.28.18.12.46.39.71.76.16.09.32.18.46.3.2-.03.37-.04.54-.05l.02-4.41c.02-4.29-5.88-2.8-7.81-6.19,2.03-4.6-1.43-13.52-1.4-13.51l-4.23-4.01c1-2.38,4.55-4.16,3.75-6.96l2.25-7.71c-2.86-1.66-4.05-4.84-2.24-6.88l.92,3.58c.14.54,1.12.41,2.58.08l-4.79-10.35c2.21-.43,2.72-.52,3.23-.1l2.68,2.19c0-1.42-.85-4.08-1.75-6.2,1.15-.99,4.08-3.67,3.62-5.41l-.59-2.24h-.49c-3.2-.05-5.51-.24-7.23-.59h-.25c-.84,0-2.09-.21-2.55-1.53-.34-.17-.62-.42-.83-.72-.01.05-.02.1-.04.14l-.53,1.37c-.26.69-.85,1.2-1.55,1.37-.7.2-1.44,0-1.97-.45-.22.23-.48.4-.77.52-.06.23-.14.42-.2.55-.53,1-1.39,1.27-2.2,1.27-.55,0-1.09-.12-1.48-.21-.26-.05-.55-.12-.76-.14-.91,0-1.69-.57-2.04-1.35-.3,0-.58-.02-.86-.04h-.32c-.82,0-1.64-.2-2.55-.6-.31.21-.62.37-.83.48-.26.14-.56.21-.85.25-2.7.16-4.05-.02-5.27-.67-.49.49-1.27.79-1.83.67l-3.92-.5c-.02.3-.09.6-.24.87-.39.74-1.16,1.2-1.99,1.2h-.18c-2.66-.23-3.7-.88-4.87-1.78-.25-.21-.53-.42-.92-.65,0,0-.02,0-.02-.02-.31-.18-.56-.43-.74-.71-.56-.06-1.13-.1-1.69-.15-.22.23-.49.42-.81.53-.27.1-.56.17-.84.23.39.46.6,1.07.53,1.7-.04.35-.11.69-.19,1.02.33.42.53.93.51,1.5,1.45.72,1.69,2.47,1.8,3.14.04.28.02.56-.05.85v-.02Z" style="fill: #ba4b2f;"/>
    <path d="M542.48,426.43c.55.25,1,.74,1.2,1.36.33,1.03.4,2.13.36,3.3.08.04.17.08.24.13l.02.02c.76.12,1.27.58,1.51,1.2.06,0,.12-.02.18-.02.81.05,1.43.23,1.9.49.34-.06.69.01,1.01.13.05-.05.09-.12.15-.16.62-.55,1.48-.69,2.26-.37,1.54.58,2.03,1.62,2.29,2.24h.08c.57-.33,1.32-.36,1.92-.09.29.12.53.28.75.44.12-.05.23-.1.36-.13.14-.16.32-.28.51-.39,1.27-.71,3.95-2.17,5.45-.18.42.58.53,1.22.46,1.83.18.07.35.14.53.21.13-.07.27-.12.41-.15.29-.78.96-1.35,1.79-1.47.39-.05,1.29-.09,2.09.4.06,0,.12.01.17.03,1.16.09,2.03.56,2.57,1.41.16-.07.32-.11.48-.14.76-.62,1.7-.77,2.75-.49.03-.02.05-.04.07-.06.51-.33,1.13-.42,1.71-.35l.97.19c.3.07.6.19.85.37.44.3.76.77.93,1.29.03.02.06.03.09.05.17.09.32.21.45.33.04-.02.09-.04.13-.05.62-.12,1.46.02,1.97.39.08.05.13.13.2.19.15-.44.43-.84.84-1.13.78-.53,1.8-.53,2.57,0,.15.11.29.23.42.36.18.02.35.05.52.1.55-.21,1.18-.21,1.74.02l1.36.62c.31.14.57.35.78.6.15.05.3.11.43.19l.03.02c.52-.14,1.08-.12,1.53.13l.92.48c.18.09.34.22.49.35.32.14.59.31.82.48.14-.05.28-.09.43-.11.4.02.81.14,1.2.33.41-.3.92-.43,1.48-.32l-2.35-3.17c.6-4.31,2.32-10.14,1.87-14.3l-1.93-18.09-1.3-38.44c-.22-6.6-.6-12.59.77-19.18.37-1.76.33-5.56.22-7.33-1.65-3.44-.83-6.15-.2-9.81,1.7-9.84,1.51-19.99,1.56-30.13l.05-10.86c-.41,0-.79-.14-1.12-.34-.37.09-.92-.02-1.3-.26-1.41-.12-2.45-.99-3.1-1.55-.12-.11-.28-.25-.42-.35-.14.11-.3.18-.48.23-.63.19-1.27.14-1.78-.12-.39.14-.79.16-1.22.04-1.39.35-2.49-.32-2.98-.62-.72.23-1.48-.04-1.99-.55-.58.18-1.2.09-1.73-.25-.09-.05-.16-.09-.23-.14-.22-.02-.36-.02-.54-.03-.15.03-.31.05-.46.05-.54,0-1.07-.21-1.49-.58-.89.26-1.75-.04-2.11-.17-.58-.09-1.06-.39-1.39-.81-.07-.07-.16-.14-.23-.19-.16-.05-.32-.12-.46-.21-.21-.05-.44-.14-.63-.26-.41-.25-.71-.6-.88-1-.04-.02-.07-.05-.11-.07-.09,0-.17.03-.26.03-.25,0-.51-.04-.76-.12-.27-.1-.5-.24-.71-.42-.05,0-.1.01-.16.01-.42,0-.83-.09-1.16-.28-1.43.6-2.84-.2-3.62-.67-.04-.04-.09-.05-.12-.07-.28.12-.58.19-.92.18-1.23-.07-2.24-.28-3.01-.56-1.02.44-2.15.07-2.75-.85-.07-.09-.35-.19-.76-.32-.21-.07-.4-.15-.59-.22-.16-.03-.32-.07-.47-.14-.51.17-1.09.17-1.58-.03-.09,0-.19-.02-.28,0-.41.12-.81.09-1.23-.04-.48-.16-1.02-.44-1.59-.74-.46-.25-1.36-.6-1.59-.65-.6.19-1.39-.04-1.94-.49-.11.04-.21.05-.35.04-.11-.02-.21-.02-.32,0-.21-.02-.32-.02-.49-.05-.07-.02-.16-.04-.25-.07-.09-.04-.18-.07-.26-.11-.05.26-.14.51-.21.78,0,.05-.02.11-.04.16,1.06.41,1.66,1.53,1.37,2.66l-1.33,5.18c.99.54,1.48,1.63,1.03,2.69h-.04v.02h.03c-.02.07-.06.12-.09.17-.02.06-.03.12-.06.18l-.16.39c.04.16.07.32.09.48.49,4.78-.26,9.15-.99,13.38-.85,4.9-1.66,9.55-.48,14.49.44.53.65,1.2.46,1.87l-1.43,5.15c.62.63,1.27,1.46,1.6,2.84.21.81-.05,1.64-.65,2.2v.07c0,.21,0,.42-.02.65.39.32.67.78.78,1.27.71,3.37.41,6.29.11,9.13-.26,2.47-.49,4.81-.12,7.53.09.72-.16,1.41-.62,1.89-.04.78-.14,1.53-.23,2.22-.07.56-.18,1.34-.18,1.8.58.48.92,1.22.83,1.99-.14,1.55-.63,2.93-1.09,4.27-.19.55-.37,1.09-.53,1.62.04.02.07.04.11.05.81.35,1.34,1.16,1.34,2.04l.03,3.25c.25.48.33,1.03.2,1.58-.33,1.41-1,2.14-1.6,2.53-.27.83-.35,1.88-.45,3.06-.05.81-.12,1.67-.25,2.59.16,0,.3.04.42.05,2.19.51,2.12,2.75,2.01,6.47-.02.62-.04,1.16-.04,1.52.02.53-.16,1-.44,1.39.26,1.97-.39,3.42-.83,4.39-.11.26-.26.62-.3.74.53.51.85,1.25.72,1.97-.09.48-.28.92-.62,1.25l.3.88c.23.65.14,1.37-.25,1.94-.21.35-.53.63-.9.81,0,.04,0,.07-.02.11,0,.35-.02,1-.21,1.69.11.25.18.53.19.81.25,1.69-.11,3.65-.44,5.39-.1.56-.24,1.31-.31,1.87l.31.32c.62.63.79,1.57.48,2.38-.17.45-.47.8-.85,1.06-.08.71-.09,1.45-.1,2.22,0,.42,0,.85-.02,1.29.16.12.32.28.44.46.35.51.49,1.16.35,1.78v.06c.05.16.11.32.14.49.17.9.07,1.81-.25,2.6-.29,2.11-.42,4-.46,5.91l.03-.04Z" style="fill: #ba4b2f;"/>
    <path d="M481.42,211.59c-.18-.19-.35-.42-.49-.67-.61-.08-1.34-.2-2.31-.37-.95-.16-1.69-.92-1.83-1.87-.02-.04-.02-.07-.02-.11-.18-.02-.36-.05-.54-.07-.38.74-1.14,1.23-2,1.23h-.05c-.18.19-.4.34-.62.46,0,.05-.01.1-.03.16.18.32.39.67.55,1.09.48.39.9.88.95,1.48.04.21-.04.62-.09.93.18.26.3.56.35.88.09.16.16.32.19.49.14.49.11.97-.07,1.41.16.25.25.51.28.79.21.18.39.39.53.62.3.55.35,1.18.19,1.76.19.46.25.95.14,1.45.32,1.41-.19,2.68-.55,3.58-.11.25-.23.58-.28.79.14.11.26.25.37.39.42.58.58,1.27.44,1.92.25.37.39.81.41,1.23.76,1.29.48,2.56.32,3.19.37.65.35,1.43.05,2.08.12.39.14.79.05,1.2-.04.12-.07.25-.12.37.09.18.14.39.16.58v.12c.36.65.36,1.42.02,2.08.58.79.56,1.76.54,2.2.07.55-.05,1.08-.33,1.52-.04.12-.09.26-.16.39v.19c0,.16-.02.32-.05.46.02.28-.02.56-.11.85-.12.41-.35.76-.67,1.04-.03.19-.08.38-.13.55.09.26.14.54.11.82-.01.19-.05.37-.1.55.04.11.08.23.1.35.14.44.15.94.04,1.41,1.2,1.26.69,2.81.38,3.56.14.19.26.44.32.69.18.76.21,1.43.14,2.01.39.76.32,1.73-.25,2.43-.11.14-.12.49-.14,1.04,0,.19-.02.36-.03.54.05.26.05.53,0,.79.35.47.52,1.05.45,1.62.05.12.09.25.12.37.19.33.3.74.3,1.16,0,.53-.11,1.15-.23,1.82-.12.72-.3,1.73-.11,2.12.32.63.33,1.39.02,2.03.05.11.11.21.14.32.04.09.05.18.07.28.05.11.09.21.11.32.02.09.04.18.04.26.02.11.02.19.02.28-.02.3-.07.6-.18.88-.05.48-.25.92-.56,1.27.04.25.05.48.07.69.05.65.11,1,.26,1.27.32.51.42,1.13.3,1.71-.02.05-.04.11-.05.16.65-.23,1.23-.33,1.76-.33,1.11,0,1.96.49,2.64,1.41.05.07.09.14.14.21.12-.12.28-.23.44-.32.98-.53,1.99-.52,2.95-.33.31-.16.71-.29,1.09-.35.41-.41.95-.71,1.59-.65.5,0,.96.17,1.34.46.1-.07.19-.14.3-.19.33-.18.71-.26,1.08-.26.41-.35.86-.55,1.3-.65.41-.25.92-.37,1.39-.3.23-.02.95-.46,1.39-.72.63-.37,1.36-.81,2.15-1.08.32-.09.67-.14.97-.09.23-.09.58-.12.67-.12.65.05,1.2.19,1.64.44.83-.19,1.67-.14,2.43.05.76-.6,1.64-.85,2.2-.99.35-.65,1.02-1.08,1.76-1.15.58-.26,1.39-.46,2.29-.12,1.36-.32,2.43.05,3.19.32.29-.25.7-.48,1.26-.56.13-.12.27-.22.43-.31.58-.3,1.37-.75,2.36-.45.13-.12.28-.23.44-.32.19-.1.49-.18.82-.24h.01c.14-.09.28-.15.42-.22.08-.12.17-.23.27-.33.58-.55,1.53-.76,2.27-.62.02,0,.04.02.06.02.63-.41,1.37-.53,2.02-.27.37-.51.85-.92,1.43-1.02.46-.63,1.16-1.15,2.03-.88.14-.05.3-.11.46-.16.26-.39.69-.79,1.37-1.06.05-.04.11-.09.16-.14.12-.09.28-.18.48-.25.02-.04.04-.09.05-.12.41-.67,1.15-1.09,1.94-1.09-.02-.63.13-1.32.35-2.02-.37-.34-.63-.81-.71-1.35-.25-1.82-.35-2.57.23-3.58.02-.02.12-.26.23-1.16.03-.2.09-.39.17-.58-.05-.1-.1-.19-.15-.3-.11-.28-.16-.58-.16-.88,0-.14.03-.27.04-.4-.22-.3-.38-.65-.43-1.04-.08-.68-.09-1.28,0-1.83-.04-.44-.09-.86-.15-1.22-.09-.55-.18-1.2-.16-1.87-.23-.24-.42-.53-.52-.86-.23-.72-.05-1.85.41-2.43.1-.12.23-.24.37-.34.05-.34.04-.81,0-1.28-.12-.11-.25-.23-.35-.37-.71-.93-.56-2.27.33-3.05.76-.65.72-.74.33-2.24-.12-.44-.25-.92-.33-1.46h-.02c-.78-.56-1.11-1.53-.85-2.45l.23-.78c.16-.48.32-.97.42-1.46-.07-.04-.14-.07-.19-.11-.97-.55-1.39-1.71-1-2.75.16-.41.12-1.48.09-2.26-.04-.83-.05-1.73.04-2.61-1.06-1-1-2.59-.99-3.31,0-.16.02-.32.07-.48-.18-.25-.3-.53-.37-.83-.19-.92-.23-1.62-.16-2.2-.67-.53-.99-1.41-.79-2.26l1-4.53c-.26.11-.49.16-.93.14-1.83-.14-3.81-.58-5.91-1.06-2.08-.48-4.21-.95-6.31-1.16-.16.19-.35.34-.55.46.03.17.05.33.04.51-.05,1.02-.81,1.9-1.83,2.1-.56.11-1.08.16-1.52.16-1.13,0-1.93-.3-2.55-.74-.37.32-.83.52-1.34.55-3.93.19-5.08-1.09-6.15-2.56-.09-.12-.18-.23-.25-.33l-1.57.72c-.19.09-.41.16-.62.19-.19.02-.39.05-.6.07-.39.71-1.13,1.15-1.96,1.15h-.07l-.46-.02c-.05.07-.11.12-.16.18-1.57,1.5-3.67,1.3-5.27,1.09-.55-.04-.99-.04-1.64-.09-.03.02-.07.04-.11.05-.1.2-.21.39-.36.56-.42.46-1.02.72-1.66.72h-2.84c-.62,0-1.37-.32-1.8-.78l.02.02Z" style="fill: #ba4b2f;"/>
    <path d="M525.03,268.12l.58.46.07-.74c-.02-.09-.49.09-.65.26v.02Z" style="fill: #ba4b2f;"/>
    <path d="M505.13,274.35c-.04-.11-.04-.23-.05-.33v.32s.04.02.05.02h0Z" style="fill: #ba4b2f;"/>
    <path d="M484.82,211.86c.07.04.14.07.19.07v-.09s-.12.02-.19.02h0Z" style="fill: #ba4b2f;"/>
    <path d="M476.21,438.73c.05-.21.13-.41.27-.56.53-.51,1.43-.88,2.22-.74.02,0,.03,0,.05.01.3-.03.61-.04.92-.05.12-.16.25-.32.39-.42.09-.07.19-.13.31-.19.3-.6.84-1.07,1.55-1.22.53-.12,1.59-.14,2.04.11.03.01.05.04.07.05.11-.22.26-.42.44-.6.61-.58,1.43-.77,2.18-.55.41-.26.9-.39,1.4-.32l.79.16c.13.03.26.07.39.11.43-.13.88-.15,1.31,0l.56.18s.06.03.1.04h0c.04-.14.09-.28.16-.41.37-.72,1.11-1.17,1.88-1.22.11-.04.22-.08.34-.1.63-.15,1.26,0,1.76.36.12-.13.25-.24.41-.34.09-.05.18-.11.26-.14.48-.39,1.2-.55,1.75-.46.33.05.71.16,1.06.39.18-.13.38-.24.59-.35.04-.03.07-.07.11-.09.44-.29.96-.39,1.46-.32l.71-.53c.6-.44,1.34-.58,2.04-.35.04,0,.09.02.14.02.48-.23.99-.39,1.76-.25.55.11,1.29.44,1.89,1.34.33-.03.66,0,.97.07.34-.29.76-.5,1.23-.56.41.02.8.09,1.14.23.11-.08.23-.16.38-.24.12-.05.26-.11.41-.14.23-.12.44-.21.69-.26.56-.56,1-.99,1.6-1.25.41-.18.83-.25,1.29-.16.21-.05.44-.05.69.02.25.07.6.21.93.44.16.02.33.05.49.09.07-.04.12-.07.18-.11.32-.67.95-1.16,1.69-1.29.32-.14.48-.18.97-.21.35.02.67.11.93.23.45.02.87.14,1.23.3.39-.29.96-.47,1.52-.54.09-.06.18-.12.28-.17.41-.8,1.25-1.31,2.19-1.25.05,0,.1.02.14.03.18-.06.37-.1.54-.11.12-.3.3-.56.55-.79.28-.26.62-.44.95-.53.06-.08.14-.15.21-.22-.12-.25-.19-.52-.21-.8l-.05-.68c-.82-.48-1.28-1.46-1.06-2.42l.38-1.72c-.32-.4-.51-.89-.5-1.42.02-.92.58-1.73,1.43-2.06l.15-.06c.17-.47.38-1.23.53-1.79.34-1.23.75-2.67,1.43-3.83l.09-.84c-.58-.37-.94-.91-1.15-1.5-.46-.41-.74-.97-.78-1.62-.02-.3-.02-.62,0-.93-.25-.28-.42-.62-.51-.99-.04-.02-.07-.04-.09-.07-.92-.65-1.18-1.87-.69-2.84-.39-.46-.6-1.06-.55-1.67.14-1.43.53-2.4,1.27-3.05-.04-.12-.05-.26-.09-.42-.18-.83.11-1.62.69-2.15-.62-.42-.99-1.11-.85-1.92.26-1.66-.07-4.07-.35-6.01-.18-1.22-.33-2.3-.36-3.23-.08-.3-.1-.62-.01-.95l.09-.35c.09-.38.25-.71.47-.99.24-.69.43-1.57.48-2.13-.13-.21-.25-.45-.35-.71-.22-.56-.2-1.18.03-1.71-.46-.28-.8-.72-.89-1.3l-.74-5.18c-.07-.56.05-1.11.35-1.55-.11-.33-.16-.69-.11-1.04.09-.62.41-1.15.88-1.52,0-.62-.21-1.75-.35-2.54-.55-3.08-1.23-6.91,1.46-9.1.53-.44,1.27-.62,1.87-.46v-.09c-.04-1.52-.07-3.14,0-4.74-.44-.35-.74-.85-.83-1.41-.38-2.29.14-4.62.88-6.93-.9-1.23-.66-2.79-.54-3.56.05-.33.14-.88.09-1.04-.56-.56-.79-1.39-.58-2.15.19-.78.79-1.39,1.55-1.6h.07c-.12-.61-.13-1.45.02-2.63,0-.04,0-.05.02-.09-.67-.71-.81-1.6-.86-1.94-.09-.51,0-1.02.25-1.46.41-.72.46-.99.46-1-.67-.55-1.34-1.52-1.23-3.45-.26-.49-.35-1.08-.21-1.62.49-2.06-.04-4.87-.55-7.58-.33-1.8-.65-3.58-.76-5.25-.02-.46.11-.92.33-1.3-.19-.41-.28-.88-.19-1.34.14-.95.39-2.52,1.37-3.4-.53-2.5.25-6.24,1.3-8.64-1.16-2.06-1.18-4.71-1.18-6.91,0-.65-.02-1.53-.07-2.08-.14-.07-.26-.18-.39-.28-.62-.63-.81-1.59-.51-2.41-.28-1.18-.28-2.17-.11-2.96-.02,0-.05-.02-.09-.02-.02.04-.05.05-.07.07-.32.26-.71.42-1.09.49-.19.14-.39.25-.62.32-.25.09-.49.14-.76.14-1,0-1.45.21-2.15.56-.46.23-1,.48-1.67.69-.16.18-.33.32-.51.44-.26.28-.56.49-.95.56-.32.07-.67.07-1.2.07-.25-.02-.56-.07-.97,0-.41.46-.97.74-1.59.78-.05.04-.11.07-.18.11-.71.42-1.55.39-2.26.04-.12.02-.26.05-.39.09-.05.02-.11.02-.16.04-.04.04-.05.07-.11.12-.35.37-.83.6-1.32.67-.16.07-.33.12-.51.16-.09.02-.18.02-.26.02-.11.14-.21.28-.35.39-.51.49-1.27.63-1.94.55l-.88-.18c-.48.48-1.08.67-1.78.65-1.96.72-3.84.56-5.5.46-1.78-.16-2.91-.19-3.84.37-.55.72-1.41,1.11-2.27.88l-.76-.19c-.18.23-.41.46-.69.65-.46.3-.97.49-1.52.39-.37-.07-.38-.05-.04.04-2.56,1.6-4.76.62-6.22,1.34-.69.28-1.43.28-2.04-.07-.44.44-1.22.67-1.66.67-.49,0-.95-.09-1.36-.21-.32.32-.69.53-1.13.62l-.77.17c-.36.24-.79.38-1.23.38-.14,0-.28-.02-.42-.04-.57-.11-1.07-.38-1.47-.74-.34.94-1.2,1.51-2.56,1.73h-.08c.03.09.05.18.08.27,1.37,3.8-1.73,8.59-1.72,11.73l.03,9.37.05,6.8c2.92,3.74-1.28,7.59,1.34,14.12l-1.68,1.98,1.95,6.62c-.77,2.51-.74,4.74-.65,8.04.05,1.67-.58,5.44.68,6.08,2.55.76,5.21,1.95,5.6,3.57.47,1.95-1.4,4.92-3.02,6.19l-.34,26.24.08,21.48c.01,3.18-2.48,6.76-2.12,10.25l1.45,14.35c.12-.02.24-.02.36-.02.16.01.31.05.47.08l.06-.09ZM493.36,308.26c.58.59.98,1.04,1.15,1.47.18.46.71,1.48.25,1.55-.74.11-2.92.43-2.74.02l1.34-3.05h0Z" style="fill: #ba4b2f;"/>
    <path d="M528.69,417.07s-.02.02-.03.03h0s.01-.02.02-.03h.01Z" style="fill: #ba4b2f;"/>
    <path d="M528.5,378.98v-.03h0s.01.02.01.03h-.01Z" style="fill: #ba4b2f;"/>
    <path d="M531.02,284.41v-.02c-.12-.02-.25-.04-.35-.07.11.04.23.07.35.09Z" style="fill: #ba4b2f;"/>
    <path d="M309.1,209.87c-1.85.33-3.68.67-5.38.78-.46.02-.93-.11-1.34-.35-.42.23-.92.32-1.37.25-.99-.14-2.61-.39-3.53-1.37-2.49.58-6.5-.16-8.99-1.16-2.06,1.2-4.79,1.25-7.07,1.29-.67.02-1.6.04-2.15.11-.09.14-.19.26-.3.39-.63.62-1.55.79-2.4.51-2.26.55-3.83.05-4.85-.55-.14.05-.3.07-.48.09-.92.12-1.8.11-2.61,0-.04.09-.05.19-.09.28.39.48.58,1.11.49,1.76-.02.04-.02.07-.02.11,1.41.81,1.57,2.66,1.64,3.47.02.25,0,.49-.07.72-.63,2.56.11,4.57.81,6.49.51,1.43,1,2.77.93,4.23-.14,1.36-.32,2.87-1.27,3.63.02.19.05.39.07.58v.25c.16.11.32.25.44.41.65.76.72,1.85.18,2.7-.02.04-.04.07-.05.12.35.49.53,1.2.55,2.12-.67,4.37-.62,6.8-.48,9.13l.07,1.41c.04.81.09,1.62.11,2.5.02.81.02,1.67,0,2.61.55.55.79,1.34.62,2.12-.02.09-.05.16-.07.25.21.35.32.76.3,1.18-.02.33-.12,1.22-.32,2.47-.05.39-.12.83-.19,1.29.2.05.4.12.58.22.75.42,1.14,1.01,1.34,1.56.14.02.28.04.41.08.69-.57,1.71-.68,2.49-.23.25.13.46.29.65.45.16-.19.35-.34.58-.42.61-.27,1.55-.11,2.14.22.39.07.87.22,1.3.59.21-.11.41-.19.58-.23.15-.05.34-.06.54-.04.53-.38,1.22-.54,1.88-.38l.55.14c.49.12.93.42,1.23.83.08.11.14.24.21.37.2-.19.44-.34.71-.44.84-.32,1.72-.12,2.34.44.51-.1,1.03-.03,1.5.34l.71.53c.14.11.27.23.38.36.42.03.83.15,1.16.43l.48.41c.08.06.14.14.21.21.1,0,.2.02.3.04.08-.09.15-.18.25-.26.7-.52,1.59-.59,2.33-.26.16.01.32.03.48.08.63.2,1.12.66,1.37,1.23.2-.1.41-.18.64-.21.14-.04.35-.02.46-.02.6-.05,1.18,0,1.67.35.25.16.56.42.81.81.07.04.14.07.21.09.3-.03.59-.05.87-.05.56-.08,1.13.07,1.58.4l1.12-.16c.69-.14,1.36.12,1.83.58.09.04.16.09.23.16.04-.02.07-.02.11-.02.56,0,1.18.14,1.76.6.44.33.95.97,1.09,2.03.43.11.79.32,1.12.58.47-.14,1-.14,1.51.05.41.16.74.43.99.76.05-.01.1-.03.15-.03-.02-.07-.04-.12-.04-.19-.46-.46-.81-1.08-.74-1.71.02-.16.11-.48.21-.74-.14-.26-.19-.56-.21-.85-.07-.18-.11-.37-.12-.56-.05-.46.04-.92.25-1.3-.09-.23-.12-.48-.14-.71-.19-.21-.33-.46-.44-.74-.19-.55-.16-1.15.07-1.66-.14-.48-.11-.97.07-1.43-.09-1.43.62-2.59,1.06-3.35.12-.18.26-.41.35-.6-.14-.14-.26-.32-.35-.51-.26-.58-.32-1.23-.11-1.8-.19-.39-.26-.81-.21-1.22-.56-1.36-.09-2.54.14-3.14-.26-.67-.14-1.41.23-1.99-.04-.35,0-.74.14-1.08.04-.11.09-.21.12-.3-.04-.21-.05-.42-.05-.63v-.11c-.2-.65-.1-1.35.29-1.92-.43-.85-.26-1.78-.2-2.2,0-.56.21-1.08.58-1.46.05-.12.12-.23.19-.33v-.09c.04-.16.07-.3.12-.44.04-.26.09-.53.21-.76.18-.41.46-.74.81-.95.02-.07.05-.13.08-.2-.11-.38-.13-.79-.03-1.19.06-.24.16-.46.28-.67,0-.11-.01-.22,0-.32-.01-.34.04-.69.16-1.02-.69-.98-.65-2.15.13-3.47-.11-.19-.16-.41-.18-.63-.09-.78-.02-1.45.12-1.99-.26-.81-.05-1.73.62-2.34.11-.11.18-.51.25-.92.04-.23.09-.44.14-.66,0-.19.03-.38.08-.56-.26-.5-.34-1.05-.22-1.58-.02-.12-.04-.25-.05-.37-.14-.37-.19-.78-.12-1.2.07-.51.26-1.09.48-1.71.21-.62.53-1.55.41-1.92-.23-.67-.14-1.39.25-1.99-.04-.11-.07-.23-.09-.32-.02-.07-.02-.14-.02-.21-.04-.11-.05-.23-.07-.35,0-.14,0-.26.02-.41,0-.09.02-.18.04-.26.07-.26.16-.53.3-.78.12-.42.37-.81.72-1.09,0-.21.02-.42.02-.6.04-.62.05-.95-.07-1.2-.26-.58-.26-1.25,0-1.83.09-.21.21-.41.35-.56-.58.23-1.29.32-2.41.35-.48.25-1.04.37-1.59.23-2.19-.53-5.06.04-7.86.58v-.05Z" style="fill: #ba4b2f;"/>
    <path d="M417.77,211.22s-.01,0-.02,0c0,0,.01,0,.02,0h0Z" style="fill: #ba4b2f;"/>
    <path d="M279.57,208.6c.02-.11.05-.21.05-.33h-.02c0,.11-.02.23-.04.33h.01Z" style="fill: #ba4b2f;"/>
    <path d="M466.84,263.38s.09.08.21.17c0-.05-.02-.1-.02-.15-.02-.04-.02-.08-.03-.12l-.16.11h0Z" style="fill: #ba4b2f;"/>
    <path d="M468.73,270.06c.04-.25.11-.47.19-.69-.23-.14-.44-.3-.61-.51-.44-.55-.68-1.53-.52-2.21-.04-.42,0-.91.11-1.29-.31-.28-.55-.64-.7-1.06-.54-.35-.92-.92-1.01-1.6l-.07-.56c-.07-.55.07-1.11.39-1.57.07-.11.17-.2.26-.29-.3-.14-.57-.35-.79-.63-.52-.64-.6-1.5-.29-2.26-.3-.47-.41-1.01-.23-1.58l.26-.85c.05-.16.12-.32.21-.47-.11-.4-.15-.83-.01-1.22l.21-.6c.04-.12.09-.22.15-.33-.03-.11-.06-.22-.08-.33-.11-.05-.24-.08-.34-.15-.74-.43-1.12-1.22-1.08-2.01-.04-.13-.07-.27-.08-.42-.08-.73.21-1.42.71-1.88-.18-.17-.34-.35-.46-.59-.07-.12-.12-.26-.16-.41-.3-.49-.41-1.09-.28-1.67.07-.3.21-.69.51-1.08v-.23c-.12-.25-.23-.5-.33-.75-.29-.53-.37-1.15-.2-1.73l-.57-1.01c-.33-.6-.37-1.3-.12-1.92.02-.11.05-.23.09-.33-.23-.56-.33-1.23-.09-1.97.18-.55.58-1.23,1.53-1.71-.06-.46.02-.89.17-1.3-.31-.4-.51-.91-.49-1.47.01-.43.16-.84.39-1.18-.1-.15-.19-.31-.26-.5-.05-.12-.07-.26-.09-.42-.14-.28-.21-.58-.21-.88-.56-.76-.93-1.29-1.15-1.94-.11-.41-.12-.83-.02-1.22-.02-.23,0-.46.07-.69.14-.35.32-.67.53-.93.05-.25.11-.49.19-.74-.07-.14-.12-.28-.18-.44-.63-.39-1.06-1.08-1.09-1.87-.11-.37-.16-.74-.11-1.06.05-.33.16-.62.32-.85.03-.57.26-1.06.5-1.44-.03-.04-.08-.08-.11-.13-.29-.46-.4-1.07-.37-1.68-.01-.02-.03-.03-.04-.05-.09-.15-.15-.32-.21-.5-.74-.54-1.14-1.49-.92-2.39,0-.02.01-.04.02-.06-.06-.26-.1-.51-.09-.75-.07-.07-.14-.12-.21-.19-.25.25-.55.44-.85.55-.55.21-1.2.18-1.75-.07-.39-.18-.86-.35-1.37-.5-.38.75-1.15,1.22-2,1.22-.09,0-.18,0-.26-.02l-4.14-.49c-.58-.07-1.08-.35-1.44-.76-.05,0-.1,0-.15,0-.11-.02-.23-.04-.35-.05-.41.16-.85.16-1.27.12l-2.81-.54c-.49.37-1.24.73-1.83.73h-.18l-2.84-.42c-.36-.05-.69-.2-.97-.4-1.49,0-2.81-.33-3.95-.64-.72-.2-1.28-.34-1.75-.41-.35.5-.88.86-1.52.95-.26.04-.49.05-.72.05-.91,0-1.55-.29-1.99-.62h0c-.48.23-1.02.3-1.57.19-.05-.02-.11-.04-.16-.05l-.27-.09c-.36.7-1.06,1.18-1.88,1.23l-.79.04c-.49.8-1.46,1.24-2.42,1.02h-.02l-1.9-.43c-.39.3-.86.48-1.36.48h-.02c-.9,0-1.69-.55-2.06-1.36l-.08-.2c-.52-.2-1.37-.44-1.98-.61-1.3-.35-2.82-.8-4.03-1.52h0c-.41-.06-.73-.09-1.01-.12-.12.19-.27.37-.46.54-.35.3-.74.51-1.18.63-.49.49-1.16.72-2.01.69-.19,0-.41,0-.6-.02-.3.26-.67.42-1.04.49-.25.05-.26.06-.04.04-.63.97-1.97,1.23-2.98.63-.46.39-.95.69-1.71.55-1.45-.14-2.45-.55-3.12-1.3-.14.02-.33.05-.56.11-.83.11-1.69-.18-2.19-.83-.46.67-1.2,1-1.97.92-1.8-.23-4.34.04-6.38.28-1.18.14-2.24.24-3.14.28-.2.06-.4.09-.61.09-.16,0-.32-.02-.48-.05l-.39-.09s-.04-.02-.05-.02c-.33-.08-.61-.23-.86-.43-.75-.3-1.78-.59-2.43-.61-.32.2-.63.32-.79.39-.26.09-.53.14-.79.14-.35,0-.69-.09-1-.24-.28.48-.71.84-1.31.91l-5.41.69c-.51.12-1.11-.07-1.55-.37-.33.12-.65.19-1.09.12-.62-.09-1.15-.41-1.52-.9-.83.14-1.9.19-2.79.33-3.14.53-7.03,1.15-9.31-1.46-.46-.53-.63-1.23-.51-1.9-.95-.05-1.85.04-2.79.04-.83,0-1.64,0-2.45-.05-.35.44-.86.74-1.43.83-2.29.34-4.76-.18-7.2-.9-1.21.89-2.76.67-3.62.55-.35-.04-.95-.16-1.16-.07-.42.41-.99.63-1.57.63-.18,0-.37-.04-.55-.07-.76-.19-1.36-.76-1.6-1.48-.01-.05-.01-.11-.02-.16-.06,0-.13.02-.2.03-.05.46-.21.91-.47,1.27-.15.28-.36.51-.61.7,0,.09,0,.18-.02.27,0,.03,0,.07.01.1.14.11.28.23.39.37.51.6.67,1.43.41,2.19-.27.78-.75,1.25-1.23,1.56,0,.12.02.23,0,.35.71.57,1.01,1.53.74,2.39-.06.2-.15.39-.24.57.2.17.37.35.5.58.33.59.41,1.49.2,2.16-.01.42-.13.92-.31,1.3.18.19.3.37.39.55.05.13.09.29.11.45.5.43.81,1.06.79,1.77-.02.51-.21,1.53-.55,1.92-.09.11-.19.2-.3.29.23.17.44.37.6.65.42.71.39,1.56,0,2.25.21.49.25,1.03,0,1.56l-.37.78c-.08.15-.18.29-.28.42.04.42,0,.85-.21,1.22l-.3.53c-.04.07-.09.12-.14.18.01.08,0,.16.01.24.13.08.26.15.37.25.64.55.88,1.39.72,2.16.02.16.03.33,0,.5-.06.64-.4,1.2-.88,1.56.13.18.24.36.31.57.04.12.07.25.09.37.25.55.26,1.18.02,1.76-.11.28-.3.63-.63.95-.02.04-.02.09-.04.12.09.24.16.47.22.71.21.56.2,1.17-.04,1.72l.39.98c.26.69.18,1.43-.19,2.03-.02.07-.04.12-.07.19.14.56.14,1.23-.21,1.92-.25.49-.74,1.11-1.73,1.43-.02.41-.15.78-.33,1.12.23.44.33.94.24,1.45-.08.41-.26.78-.52,1.08.06.14.13.29.17.47.02.12.04.26.04.41.07.28.11.56.09.85.42.79.71,1.34.81,1.97.07.44.02.88-.16,1.27,0,.23-.05.46-.16.65-.12.19-.33.53-.67.83-.07.19-.16.39-.26.58.04.12.07.25.11.37.56.48.88,1.22.79,1.97.07.37.05.76-.04,1.06-.11.33-.26.6-.44.81-.13.48-.38.88-.65,1.2,0,.02.02.03.03.05.24.51.26,1.15.13,1.75.05.14.11.28.14.44.69.63.94,1.67.59,2.54,0,.01-.01.03-.02.04.02.23.02.46-.03.68.14.3.24.61.28.91l2.19-.87,3.48,2.91c1.85.12,3.54.23,5.16.31-.02-.08-.03-.15-.03-.23l.26.24c3.52.15,6.72.08,10.57-.73l9.8-2.07c6.26-1.32,12.89-1.41,18.98.44,7.47,2.27,14.69,2.6,22.51,2.64l50.82.26,13.13-1.48c.91-.1,2.97-.05,5.01.05-.07-.29-.09-.59-.04-.89.15-.84.57-1.39,1.01-1.77-.03-.15-.07-.31-.07-.46-.81-.46-1.25-1.39-1.1-2.31l.04-.02ZM360.63,239.57l-8.5-.5,5.84-1.83,3.09-.83c.66-.18.35,3.21-.43,3.16Z" style="fill: #ba4b2f;"/>
    <path d="M594.98,467.87l1.93-1.78.15-14.52c-.43.1-.86.1-1.23-.1-.23-.11-.46-.21-.69-.3-.19.14-.42.26-.67.32-1.55.41-2.89-.32-3.98-.92-.28-.16-.6-.33-.88-.48-.21.05-.37.02-.6.07-.28.11-.58.12-.99.07-.72-.11-2.13-.3-3.45-.93-.69.23-1.48.09-2.1-.42-.6-.49-2.13-.86-3.37-1.15-.66-.15-1.3-.31-1.86-.47-.39-.04-.78-.17-1.11-.42-.2-.08-.4-.15-.59-.25-.16.09-.33.16-.53.21-.58.14-1.25.09-1.78-.25-.51.14-1.02,0-1.53-.11-.39.04-.71.04-1-.05-.63-.18-1.39-.44-2.22-.72-2.06-.69-4.64-1.57-6.4-1.57h-.05c-.63,0-1.22-.26-1.66-.72-.19-.21-.35-.48-.46-.76-.25-.09-.58-.19-.9-.3-.28.21-.6.35-.93.41-.37.23-.76.41-1.08.44-.28.04-.53.04-.79-.02h-.02c-.16,0-.33,0-.49-.05-.11-.02-.21-.05-.32-.11-.21-.07-.44-.19-.65-.33-.65-.09-1.25-.49-1.6-1.09l-.02-.04c-.85-.12-1.66-.3-2.45-.46-1.23-.26-2.33-.56-3.35-.42-.88.07-1.66-.37-2.1-1.09-.07-.12-.14-.26-.18-.42-.32.11-.63.12-.92.12-.39,0-.74-.05-1.06-.11,0,.23-.02.46-.02.69.51.58.69,1.37.48,2.13l-.09.3c.28.37.46.85.49,1.39.3,4.71.18,8.11-.44,10.59.69.51,1.04,1.34.81,2.24-.83,3.03-.86,6.86-.9,10.56,0,1.45-.02,2.89-.07,4.27.07.31.1.62.04.93l-.1.46c-.12,1.79-.31,3.29-.62,4.56.49.51.99,1.2,1.29,2.15.19.62.11,1.29-.21,1.83.05.39.14.9.21,1.3.26,1.46.58,3.14.46,4.71.02.02.04.04.04.05.19.33.28.72.28,1.11-.02,2.04-.14,4.41-.28,6.93-.09,1.43-.16,2.93-.23,4.42-.12,3.4-.18,7.83.48,11.7.16.96-.3,1.88-1.11,2.34l2.93.06,14.58,2.24c.26.37,1.7-.8,2.05-1.05l8.59-.16,7.59-2.48c.75-3.64,2.63-2.04,2.31.44,2.92,1.62,6.39-.14,8.41-3.26l3.51,3.64.14-3.83c.06-1.68,2.31-.09,1.84-1.63l-.81-2.64c-.85-2.77-1.3-6.18-.64-8.86l2.27-9.13c1.12-4.51.49-12.11.49-16.85-.49-.61-2.3-2.03-1.85-2.45v.02ZM570.49,500.47l.64-6.53c1.08.49,2.55,1.15,2.4,1.65l-1.2,3.87,2.1.02c.42,0,.68.74,1.39,2.74l-5.34-1.76h.01Z" style="fill: #ba4b2f;"/>
    <path d="M534.53,508.22c-.16.04-.32.06-.49.06h-.05c-1.02-.02-1.9-.74-2.13-1.73-.44-1.81-.17-2.99.36-3.85-.3-.34-.49-.77-.53-1.24-.37-3.68.99-4.99,2.43-6.03.05-.04.11-.07.16-.12l-.69-1.29c-.11-.19-.18-.41-.23-.62-.02-.18-.05-.33-.09-.49-.74-.39-1.22-1.15-1.22-2.01v-.33s-.11-.09-.16-.14c-1.55-1.48-1.41-3.56-1.3-5.06.04-.51.07-1.04.05-1.46-.01-.01-.01-.03-.02-.05-.23-.09-.45-.22-.65-.39-.46-.41-.74-.99-.76-1.6l-.11-2.68c0-.19.02-.39.05-.56.16-.71.7-1.41,1.36-1.8.07-.55.16-1.2.3-2.05.14-.97.9-1.73,1.87-1.87.02-.02.04-.02.05-.02,0-.08.02-.16.03-.24-.73-.35-1.24-1.08-1.28-1.91-.72-.63-1.02-1.57-.81-2.64.23-1.11,1.29-1.8,2.38-1.82l.31.02c.08-1.34.12-2.65.06-3.92-.09.02-.18.02-.27.02l-1.15,1.09c-.42.41-.99.62-1.55.62-.37,0-.76-.09-1.09-.28-.86-.48-1.32-1.46-1.11-2.43.18-.89.56-1.66,1.08-2.25-.2-.21-.38-.44-.48-.69-.25-.6-.23-1.25.04-1.83.15-.32.29-.7.41-1.12-.83-.41-1.36-1.3-1.25-2.26l.41-3.91c.05-.62.3-1.13.72-1.49h0c0-.1.02-.19.04-.29-.16-.41-.21-.85-.14-1.29l.46-2.54c-.44-.56-.85-1.39-.78-1.98l.37-2.7c.01-.09.04-.17.06-.26-.05.04-.1.08-.17.12-.3.53-.76,1.02-1.34,1.15-.19.04-.55.02-.85.02-.21.16-.44.28-.69.37-.14.09-.3.18-.46.25-.53.18-1.08.21-1.55.04-.07.07-.12.12-.19.16-.16.28-.37.53-.65.72-.48.35-1.09.48-1.64.41-.41.21-.86.32-1.3.25-1.3.42-2.59.04-3.42-.25-.14-.04-.33-.11-.49-.14-.09.12-.19.25-.32.35-.49.42-1.08.58-1.69.6-.3.25-.65.41-1.04.48-1.15.85-2.41.65-3,.6-.6.44-1.29.53-1.97.28-.26.09-.55.16-.93.07-.09-.02-.16-.04-.25-.05-.14.08-.29.12-.46.15-.38.27-.83.41-1.29.41-.23,0-.46-.05-.69-.13-.72.59-1.65.64-2.02.66-.58.12-1.08.02-1.5-.21-.12-.02-.23-.05-.32-.09-.19-.02-.39,0-.58-.02-.19.02-.41.02-.6,0-.48-.07-.9-.28-1.23-.6-.03,0-.05,0-.08-.01-.25.14-.53.24-.84.28-.09.02-.18.02-.26.02-.23,0-.46-.04-.67-.11-.35.17-.75.28-1.13.28h-.12c-.59.64-1.58,1.03-3.16.61-.16.12-.33.23-.53.3-.67.23-1.27.33-1.82.33-.72.44-1.69.44-2.41-.07-.12-.07-.28-.05-.85-.02-.27.02-.54.08-.85.05-.07,0-.14.03-.22.03-.4.34-.88.55-1.4.57-.07.04-.14.05-.19.09-.35.26-.78.44-1.23.48-.53,0-1.08-.02-1.73-.09-.46-.04-1.41-.14-1.64,0-.56.31-1.26.44-1.9.23-.06.04-.12.09-.18.12-.05.03-.11.04-.17.06-.17.1-.35.19-.54.25l2.34,11.56c1.85,9.13-4.72,14.02,1.63,17.03.99.27,1.82,2.98,1.2,3.76l-1.95,2.46.68,5.15,4.19.09-3.05,4.03-1.76,3.46c-4.51,1.99-5.72,8.57-1.91,11.01,0,0,8.03-.49,7.87.43-.36,1.98,1.48,2.81,1.48,2.81l-2.71,3.81,13.82,1.31c2.25-.94,7.05-1.48,9.28-1.08-.27,1.96-.34,2.45-.36,2.51-.01.04,2.22-1.9,2.34-2.17l10.59-3.45.5,2.92c.34,2.01,6.39-3.59,11.73.77,0,0,1.09-1.29,2.07-2.32.18-1.04.34-2.08.41-3.12-.19-.15-.33-.33-.46-.52l-.03-.02ZM484.92,482.94l-1.36-.02.77-3.89.41-2.05c.09-.43,1.38.94,1.26,1.45l-1.08,4.51h0Z" style="fill: #ba4b2f;"/>
    <path d="M531.08,462.29c.6.24,1.11.16,1.4,0-.22-.07-.43-.17-.62-.3l-.61-.06-.18.35h0Z" style="fill: #ba4b2f;"/>
    <path d="M322.13,291.73s-2.81-.5-2.87-.96l-.25-1.78-.76-4.78c-.63.07-1.28-.1-1.77-.55-.23-.21-.51-.46-.69-.6-.14.09-.28.14-.44.19-.67.23-1.41.14-1.99-.25-.41.14-.86.11-1.27-.05-1.45.19-2.47-.44-3.03-.79-.72.12-1.46-.16-1.96-.67-.35-.04-.71-.14-1.02-.33-.12-.07-.25-.16-.35-.25-.11.02-.42-.02-.63-.07h-.03c-.11,0-.22.02-.32.02-.63,0-1.22-.27-1.65-.74-.93.28-1.83-.12-2.23-.28-.49-.11-.92-.39-1.23-.78-.12-.09-.23-.18-.35-.3-.04-.02-.09-.04-.14-.05-.18-.07-.35-.16-.51-.26-.21-.07-.42-.18-.62-.32-.35-.26-.62-.62-.78-1-.09-.05-.18-.11-.26-.16-.06,0-.12.02-.18.02-.26,0-.55-.05-.81-.14-.3-.12-.55-.3-.77-.51-.1,0-.2-.02-.3-.05-.38-.05-.75-.19-1.09-.4-1.5.58-2.84-.34-3.41-.88-.23.04-.48.04-.72.05-.78-.11-1.41-.3-1.92-.56-.81.16-1.67-.26-2.17-1.04-.09-.16-.41-.3-.93-.49-.2-.08-.39-.17-.58-.26-.22-.04-.42-.13-.62-.24-.53.16-1.12.1-1.62-.12-.28-.04-.51,0-.76,0-.28,0-.56-.05-.83-.16-.48-.19-1.02-.49-1.59-.83-.62-.37-1.39-.72-1.9-.83-.67.12-1.41-.18-1.89-.67-.12.02-.32,0-.33.02-.11,0-.19-.02-.32-.02-.18,0-.41-.02-.65-.11v.02c-.09-.04-.18-.07-.26-.11-.25-.11-.49-.26-.69-.44-.25-.12-.46-.3-.65-.49l-.11.39c.12.12.25.28.35.44.53.88.39,2.01-.32,2.73-.3.53-.37,3.03-.41,4.69-.04.95-.05,1.92-.11,2.89.07.07.14.16.21.25.42.53.56,1.23.42,1.89l-.07.3c.12.3.18.63.16.97-.07,1.08-.33,2.2-.62,3.37-.05.21-.11.42-.16.62,1.06.41,1.66,1.52,1.41,2.63l-1.44,6.21c.96.53,1.42,1.69,1.03,2.75,0,0,0,.02-.02.04-.02.08-.1.27-.15.4,0,.01,0,.03-.01.04l-.23.62c.07.21.12.44.14.67.18,2.8.11,5.73-.25,8.94-.23,2.12-.55,4.2-.86,6.28l-.3,1.99c-.76,4.92-1.34,9.78-.32,15,.41.49.6,1.11.44,1.75l-1.5,6.15c.69.95,1.32,1.89,1.62,3.4.14.78-.12,1.55-.67,2.08v.32c-.02.33-.02.71-.04,1.06.39.33.67.81.76,1.34.65,3.74.32,7.02.02,10.19-.28,2.79-.56,5.68-.18,8.92.09.69-.16,1.36-.62,1.83-.04.95-.14,1.9-.25,2.75-.09.78-.21,1.89-.18,2.43.55.46.85,1.18.78,1.92-.14,1.71-.62,3.28-1.08,4.78-.23.79-.48,1.57-.65,2.36.02,0,.05.02.07.02.85.35,1.41,1.18,1.41,2.1v3.88c.24.45.33.99.21,1.51-.3,1.51-.95,2.31-1.54,2.73-.31,1.02-.4,2.29-.49,3.73-.07,1.09-.16,2.26-.33,3.45.12.02.23.04.35.05,2.26.48,2.17,2.59,2.01,7.24-.04.69-.05,1.29-.05,1.69,0,.53-.18,1-.48,1.39.32,2.22-.33,3.84-.76,4.94-.21.51-.32.78-.33.95.07.04.12.07.19.12.14-.11.39-.21.71-.26.51-.37,1.15-.63,1.78-.51.18.04.44.16.69.3.26-.07.51-.12.78-.05.14-.04.28-.05.44-.05h.02c.56,0,1.08.21,1.46.56.09-.04.16-.07.25-.09.25-.19.55-.32.88-.39.56-.12,1.15-.04,1.62.26.46,0,.9.07,1.3.28,1.36.14,2.34,1,3,1.55.11.11.25.23.37.32.14-.07.3-.14.44-.19.62-.21,1.25-.16,1.78.12.35-.12.74-.12,1.09-.04,1.41-.39,2.47.3,2.98.62.76-.18,1.39.02,1.9.49.32.04.62.14.9.32.07.04.12.09.19.12.18-.04.35.02.53.04h0c.66-.12,1.33.08,1.85.52.92-.26,1.79.07,2.14.21.48.11.9.37,1.2.74.11.07.21.14.3.23.18.05.33.12.49.23.21.05.41.14.58.25.41.25.71.6.88,1,.02.01.04.03.06.04.32-.04.66-.01.98.1.26.09.5.23.71.4.42-.02.86.09,1.22.27.75-.33,1.83-.4,3.13.67.19-.07.39-.09.6-.07.72.05,1.32.19,1.82.41.78-.19,1.69.28,2.17,1,.05.09.42.21.72.3.21.08.42.15.62.23.15.03.29.08.42.14.48-.19,1.02-.15,1.49.02.14,0,.25.02.3,0,.37-.09.76-.05,1.11.04.04.01.11.04.19.06l.25-2.59,2.4-2.16c.5-.45-1.39-2.16-1.75-2.42,2.65-5-.58-6.97-.42-15.16l.37-9.15c-1.34-.74-2.49-1.23-2.18-1.75l1.4-2.35c-1.08-1.33-3.45-3.67-3.15-5.08l1.3-6.01-.34-6.94,1.2-14.41c.27-3.27-1.76-9.07.76-11.97,4.23-4.86,5.76-11.62,1.64-16.24l3.06-4.56c.7-1.05,2.5-3.81,1.76-4.85l-2.78-3.88,2.85-2.76c2.05-1.98-4.43-5.51-3.89-6.65l1.65-3.48c.24-.5.95-3.64.95-3.64l1.82-3.8c.44-.91-.94-2.44-1.43-3.43.67-1.04,1.77-2.43,1.48-3.09h.05Z" style="fill: #ba4b2f;"/>
    <path d="M319.4,445.03l-2.27-1.58-.09,4.4c-.01.58,2.15-.42,2.52-.88s.34-1.59-.16-1.94Z" style="fill: #ba4b2f;"/>
    <path d="M317.34,439.66c.4.13.65-1.67.67-2.22.01-.32-.77-.6-1.45-.69-.03,0-.06,0-.08-.01-.52-.06-.96,0-.91.25l.39,1.86c.08.39.89.64,1.38.8h0Z" style="fill: #ba4b2f;"/>
  </g>
</svg>